<svg xmlns="http://www.w3.org/2000/svg" viewBox="0 0 500 500"><g id="freepik--Shadow--inject-148"><ellipse cx="256" cy="432.82" rx="175.17" ry="13.82" style="fill:#f5f5f5"></ellipse></g><g id="freepik--Character--inject-148"><rect x="159.75" y="277.69" width="4.93" height="154.07" transform="translate(324.44 709.46) rotate(180)" style="fill:#263238"></rect><path d="M285.17,335.52h81.42a0,0,0,0,1,0,0v11.29a0,0,0,0,1,0,0H285.17a3.71,3.71,0,0,1-3.71-3.71v-3.87A3.71,3.71,0,0,1,285.17,335.52Z" transform="translate(648.04 682.32) rotate(180)" style="fill:#0971F1"></path><line x1="359.74" y1="432.62" x2="353.84" y2="339.37" style="fill:none;stroke:#0971F1;stroke-linecap:round;stroke-linejoin:round;stroke-width:2.82550010634003px"></line><line x1="337.15" y1="437.24" x2="331.25" y2="343.99" style="fill:none;stroke:#0971F1;stroke-linecap:round;stroke-linejoin:round;stroke-width:2.82550010634003px"></line><line x1="277.94" y1="432.62" x2="283.84" y2="339.37" style="fill:none;stroke:#0971F1;stroke-linecap:round;stroke-linejoin:round;stroke-width:2.82550010634003px"></line><line x1="300.53" y1="437.24" x2="306.43" y2="343.99" style="fill:none;stroke:#0971F1;stroke-linecap:round;stroke-linejoin:round;stroke-width:2.82550010634003px"></line><path d="M292.39,328.08h81.42a0,0,0,0,1,0,0v11.29a0,0,0,0,1,0,0H292.39a3.71,3.71,0,0,1-3.71-3.71v-3.87A3.71,3.71,0,0,1,292.39,328.08Z" transform="translate(662.49 667.45) rotate(180)" style="fill:#0971F1"></path><path d="M292.39,328.08h81.42a0,0,0,0,1,0,0v11.29a0,0,0,0,1,0,0H292.39a3.71,3.71,0,0,1-3.71-3.71v-3.87A3.71,3.71,0,0,1,292.39,328.08Z" transform="translate(662.49 667.45) rotate(180)" style="opacity:0.2"></path><rect x="288.1" y="281.37" width="4.93" height="154.07" transform="translate(581.13 716.82) rotate(180)" style="fill:#263238"></rect><path d="M304.9,293.1s-56.35,2.12-65.71,24.74c0,0,1.3,67.37,8.84,89.48l16.13-1.83L261.58,340l58.29-46.88Z" style="fill:#263238"></path><path d="M304.9,293.1s-56.35,2.12-65.71,24.74c0,0,1.3,67.37,8.84,89.48l16.13-1.83L261.58,340l58.29-46.88Z" style="opacity:0.2"></path><polygon points="261.49 422.35 251.42 422.35 251.28 415.64 251.18 410.38 261.02 410.98 261.21 415.64 261.49 422.35" style="fill:#b55b52"></polygon><polygon points="261.21 415.64 251.28 415.64 251.18 410.38 261.02 410.98 261.21 415.64" style="opacity:0.2"></polygon><polygon points="265.99 412.52 244.43 413.17 240.5 405.17 265.39 404.94 265.99 412.52" style="fill:#0971F1"></polygon><path d="M248.84,423.87s.52-5.91-1.54-5.09S247.54,422.62,248.84,423.87Z" style="fill:none;stroke:#0971F1;stroke-miterlimit:10;stroke-width:0.94183336878001px"></path><path d="M248.84,423.87s-4.43-3.1-5.56-1.52S248.84,423.87,248.84,423.87Z" style="fill:none;stroke:#0971F1;stroke-miterlimit:10;stroke-width:0.94183336878001px"></path><path d="M252.35,421l8,.08a2.28,2.28,0,0,1,2.22,2.1l.56,7.07a2.19,2.19,0,0,1-2.23,2.38c-4.33-.13-13.24-.36-16.4-.27-4.23.12-10.24.19-11.1-1.42a2.09,2.09,0,0,1,.51-2.66s11.53-1.07,16.83-6.55A2.27,2.27,0,0,1,252.35,421Z" style="fill:#263238"></path><path d="M355.46,293.1s1.07,13.13.67,23.28c-.46,11.7-25.65,22-62.32,16,0,0-2.86,19.77-13,38s-26,45.26-26,45.26l-15.6-10.15s20.54-57,24.45-72.82,5.46-23.41,16.64-28.35,35.63-11.22,35.63-11.22Z" style="fill:#263238"></path><polygon points="248.84 412.66 246.99 415.5 242.92 421.77 235.11 417.22 239.2 410.86 240.79 408.4 248.84 412.66" style="fill:#b55b52"></polygon><polygon points="248.84 412.66 246.99 415.5 239.2 410.86 240.79 408.4 248.84 412.66" style="opacity:0.2"></polygon><polygon points="258.87 410.38 238.42 398.14 235.11 406.31 254.52 417.52 258.87 410.38" style="fill:#0971F1"></polygon><path d="M229.76,417.52s1.49-5.12-.18-5.22S229.76,417.52,229.76,417.52Z" style="fill:none;stroke:#0971F1;stroke-miterlimit:10;stroke-width:0.94183336878001px"></path><path d="M229.37,417.33s-2.31-5.56-4.17-4.32S229.37,417.33,229.37,417.33Z" style="fill:none;stroke:#0971F1;stroke-miterlimit:10;stroke-width:0.94183336878001px"></path><path d="M236.12,416.66l6.82,4a2.19,2.19,0,0,1,.85,2.87l-3.09,6.27a2.21,2.21,0,0,1-3.13.9c-3.67-2.26-11.24-6.89-14-8.38-3.72-2-8.93-4.92-8.86-6.71a2.08,2.08,0,0,1,1.79-2s10.48,4.82,17.83,2.82A2.33,2.33,0,0,1,236.12,416.66Z" style="fill:#263238"></path><path d="M292.16,235.72s-2.1,22.94-1.26,28.84c0,0-21.92,3.21-33,1.69l-7.42-1.86-9.28,2.27,2.53,7.35h7.42s5.4,1.52,7.76,0c0,0,18.55,3.71,29.51,2.53s14.36-5.35,14.85-13.66c.46-8,5.73-25.82,1.52-29.87Z" style="fill:#b55b52"></path><path d="M367.44,238.3s-8.41-21.36-16.59-26.18-46.06,4.4-46.06,4.4-16.25,5.23-17.18,30.62l14.93,6.33,2.36,39.63h50.56l-.27-51.33Z" style="fill:#0971F1"></path><path d="M305.48,174.66s-5-.63-6.36-4.38,3.86-1.86,3.42-8.64,7.35-8.4,13-5.42,14.62-.27,18,3.8,1.9,7.86,1.9,7.86,9.72,11-2.6,18.51S305.48,174.66,305.48,174.66Z" style="fill:#263238"></path><path d="M334.88,211.21c-5.4,8.23-10.26,9.08-16.77,9.07-7.31,0-4.86-5.19-4.86-5.19,3.06-1.53,5.29-3.17,5.64-6.94a14.88,14.88,0,0,0,.05-2.2,19.54,19.54,0,0,0-.87-5c-10.35.94-14-4.11-15.29-13.64a29.33,29.33,0,0,1,3.06-17.05c6,7.06,17.29,1.53,17.29,1.53-3.17,9.17,4.59,12.46,4.59,12.46,3-1.88,5.4-.24,5.17,3.41a5.1,5.1,0,0,1-3.41,4.59C328.89,208.5,334.88,211.21,334.88,211.21Z" style="fill:#b55b52"></path><path d="M308.69,191.06a.32.32,0,0,1-.32-.3.32.32,0,0,1,.3-.34c3.62-.19,5-1.93,5.05-1.95a.31.31,0,0,1,.44-.05.32.32,0,0,1,.06.45c-.06.08-1.58,2-5.51,2.19Z" style="fill:#263238"></path><path d="M308.69,187.12l-.59-6.07-2.62,5.52A3.28,3.28,0,0,0,308.69,187.12Z" style="fill:#a02724"></path><path d="M312.73,181.05c0,.76.35,1.38.79,1.38s.79-.62.79-1.38-.35-1.38-.79-1.38S312.73,180.29,312.73,181.05Z" style="fill:#263238"></path><ellipse cx="304.69" cy="181.05" rx="0.79" ry="1.38" style="fill:#263238"></ellipse><path d="M318,178a.41.41,0,0,1-.35-.18c-.05-.08-1.36-1.84-4.4-1.28a.42.42,0,0,1-.5-.34.44.44,0,0,1,.34-.5c3.6-.66,5.19,1.53,5.26,1.63a.43.43,0,0,1-.35.67Z" style="fill:#263238"></path><path d="M303.35,177.44a.46.46,0,0,1-.2-.05.42.42,0,0,1-.18-.57,3.31,3.31,0,0,1,3.33-1.57.42.42,0,0,1,.36.48.41.41,0,0,1-.47.36,2.48,2.48,0,0,0-2.46,1.12A.45.45,0,0,1,303.35,177.44Z" style="fill:#263238"></path><path d="M302.67,185.78a4.73,4.73,0,1,1,4.74-4.73A4.73,4.73,0,0,1,302.67,185.78Zm0-8.83a4.1,4.1,0,1,0,4.1,4.1A4.1,4.1,0,0,0,302.67,177Z" style="fill:#fff"></path><path d="M314,185.78a4.73,4.73,0,1,1,4.73-4.73A4.74,4.74,0,0,1,314,185.78Zm0-8.83a4.1,4.1,0,1,0,4.09,4.1A4.11,4.11,0,0,0,314,177Z" style="fill:#fff"></path><line x1="307.41" y1="181.05" x2="309.23" y2="181.05" style="fill:none;stroke:#fff;stroke-miterlimit:10;stroke-width:0.94183336878001px"></line><line x1="318.39" y1="181.92" x2="327.26" y2="184.05" style="fill:none;stroke:#fff;stroke-linecap:round;stroke-linejoin:round;stroke-width:0.94183336878001px"></line><path d="M321.5,200a22.6,22.6,0,0,1-2.56,5.91,19.54,19.54,0,0,0-.87-5Z" style="opacity:0.2"></path><polygon points="302.54 253.47 302.54 247.14 299.98 252.39 302.54 253.47" style="opacity:0.2"></polygon><polygon points="344.27 245.02 342.32 233.63 341.77 246.03 344.27 245.02" style="opacity:0.2"></polygon><path d="M358.22,268.92c-.12,8.33-3.87,12.48-14.84,13.66s-29.51-2.53-29.51-2.53c-2.36,1.52-7.76,0-7.76,0h-7.42l-2.52-7.35,9.27-2.26,7.42,1.85c11.13,1.52,33.05-1.68,33.05-1.68-.63-4.42-1.34-18.85-1.64-25.59l13.08-3.87C358.64,250,358.33,261.74,358.22,268.92Z" style="fill:#b55b52"></path><path d="M164.77,225.42l8.85,45.11a4.32,4.32,0,0,0,4.23,3.47h74.93a4.3,4.3,0,0,0,4.23-5.06l-8-45.11a4.29,4.29,0,0,0-4.23-3.54H169A4.29,4.29,0,0,0,164.77,225.42Z" style="fill:#0971F1"></path><path d="M245.87,220.29,255.23,274h0a2.24,2.24,0,0,0,2.21-2.64l-8.77-49.23a2.23,2.23,0,0,0-2.21-1.84Z" style="opacity:0.2"></path><path d="M174.5,278.31H289.74a4.3,4.3,0,0,0-4.31-4.31H178.83A4.32,4.32,0,0,0,174.5,278.31Z" style="fill:#0971F1"></path><path d="M251.67,278.31h38.07a4.3,4.3,0,0,0-4.31-4.31H256A4.32,4.32,0,0,0,251.67,278.31Z" style="opacity:0.2"></path><path d="M201.73,248.82c.81,5.61,4.69,9.7,8.67,9.13s6.55-5.59,5.75-11.2-4.69-9.7-8.67-9.13S200.92,243.2,201.73,248.82Z" style="fill:#fff;opacity:0.4"></path><path d="M174.5,278.31H289.74a4.3,4.3,0,0,0-4.31-4.31H178.83A4.32,4.32,0,0,0,174.5,278.31Z" style="opacity:0.2"></path><path d="M127.3,283.89h199a7.12,7.12,0,0,0-7.12-7.12H134.43a7.13,7.13,0,0,0-7.13,7.12Z" style="fill:#263238"></path></g></svg>