<svg xmlns="http://www.w3.org/2000/svg" viewBox="0 0 500 500"><g id="freepik--Shadow--inject-138"><ellipse id="freepik--path--inject-138" cx="250" cy="416.24" rx="193.89" ry="11.32" style="fill:#f5f5f5"></ellipse></g><g id="freepik--Character--inject-138"><path d="M182.31,316.24H268.5c-3-6.54-8.47-10.55-14.37-10.55h-67Z" style="fill:#FAA627"></path><path d="M167.79,316.24h34.52c-3-6.54-8.47-10.55-14.38-10.55H175.71c-5.9,0-8.83,3.41-7.92,10.55Z" style="fill:#FAA627"></path><path d="M167.79,316.24h34.52c-3-6.54-8.47-10.55-14.38-10.55H175.71c-5.9,0-8.83,3.41-7.92,10.55Z" style="fill:#263238;opacity:0.5"></path><polygon points="228.59 407.5 221.11 407.5 221.11 316.24 212.9 316.24 212.9 407.5 205.42 407.5 197.36 414.96 212.9 414.96 221.11 414.96 236.65 414.96 228.59 407.5" style="fill:#FAA627"></polygon><polygon points="228.59 407.5 221.11 407.5 221.11 316.24 212.9 316.24 212.9 407.5 205.42 407.5 197.36 414.96 212.9 414.96 221.11 414.96 236.65 414.96 228.59 407.5" style="fill:#fff;opacity:0.7000000000000001"></polygon><rect x="212.9" y="316.24" width="8.21" height="3.06" style="fill:#FAA627;opacity:0.5"></rect><polygon points="274.71 404.95 283.68 402.68 281.55 381.16 272.58 383.43 274.71 404.95" style="fill:#b55b52"></polygon><path d="M284.07,398.71,273.77,400a.66.66,0,0,0-.6.72l.55,8.21a1.64,1.64,0,0,0,1.82,1.42c3.57-.52,5-.91,9.52-1.82a131.68,131.68,0,0,0,13-3.17c3.59-1.21,2.34-4.84.67-4.64-3.95.47-10.17,0-13-1.69A2.67,2.67,0,0,0,284.07,398.71Z" style="fill:#263238"></path><polygon points="272.58 383.44 281.56 381.17 282.58 391.53 273.57 393.49 272.58 383.44" style="opacity:0.2"></polygon><path d="M214,275.54s66.47-2.23,66.69,24.28c.31,38.09,4.45,85.38,4.45,85.38l-16.74,2.48S257,342.29,257.21,312.55c-18.69-5.28-67.23-1.84-72.95-17.33-4.67-12.68-2.23-19.68-2.23-19.68Z" style="fill:#263238"></path><path d="M241.25,283.71s-2,15.16,4.91,26.85a74.05,74.05,0,0,1,11.06,2,78.84,78.84,0,0,0,.46,8.65C268.8,304.62,259.7,285.8,241.25,283.71Z" style="opacity:0.30000000000000004"></path><polygon points="267.1 392.08 286.49 388.43 286.81 380.91 265.29 384.7 267.1 392.08" style="fill:#FAA627"></polygon><path d="M287.52,399.89a11.35,11.35,0,0,1-2.48,0,.23.23,0,0,1-.19-.15.22.22,0,0,1,.06-.22c.27-.24,2.64-2.35,3.81-2.06a.85.85,0,0,1,.58.54,1.2,1.2,0,0,1-.12,1.2A2.53,2.53,0,0,1,287.52,399.89Zm-1.94-.4c1.69.12,2.89-.09,3.26-.57a.78.78,0,0,0,.05-.78.37.37,0,0,0-.27-.27C288,397.71,286.56,398.68,285.58,399.49Z" style="fill:#FAA627"></path><path d="M285.09,399.88H285a.21.21,0,0,1-.13-.16c0-.11-.57-2.72.24-3.73a1.11,1.11,0,0,1,.87-.42.83.83,0,0,1,.85.55c.34,1-.78,3.06-1.62,3.73Zm.77-3.88a.66.66,0,0,0-.44.25c-.48.6-.36,2.12-.22,3,.71-.78,1.43-2.35,1.21-3-.05-.12-.14-.26-.45-.26Z" style="fill:#FAA627"></path><polygon points="235.92 406.93 245.09 405.76 246.59 384 237.42 385.16 235.92 406.93" style="fill:#b55b52"></polygon><path d="M245.3,404.5l-10.38-.33a.67.67,0,0,0-.71.61l-.76,8.2a1.64,1.64,0,0,0,1.57,1.69c3.61.05,5.34-.11,9.91,0,2.81.09,8.33.5,12.18,0s3.26-4.28,1.59-4.42c-4-.32-9.29-3.06-11.83-5.19A2.59,2.59,0,0,0,245.3,404.5Z" style="fill:#263238"></path><path d="M248.52,406.21a10.88,10.88,0,0,1-2.45-.41.23.23,0,0,1-.16-.17.22.22,0,0,1,.1-.21c.3-.2,3-1.9,4.09-1.43a.83.83,0,0,1,.48.63,1.19,1.19,0,0,1-.31,1.16A2.52,2.52,0,0,1,248.52,406.21Zm-1.85-.7c1.64.38,2.86.37,3.31-.05a.76.76,0,0,0,.17-.76.38.38,0,0,0-.22-.31C249.33,404.13,247.77,404.86,246.67,405.51Z" style="fill:#FAA627"></path><path d="M246.12,405.81a.19.19,0,0,1-.1,0,.2.2,0,0,1-.11-.17c0-.12-.13-2.78.83-3.65a1.1,1.1,0,0,1,.92-.27.81.81,0,0,1,.76.68c.19,1-1.25,2.9-2.19,3.41A.2.2,0,0,1,246.12,405.81Zm1.38-3.7a.64.64,0,0,0-.47.17c-.57.52-.7,2-.7,2.92.83-.66,1.79-2.09,1.67-2.76,0-.12-.09-.28-.4-.32Z" style="fill:#FAA627"></path><polygon points="237.42 385.17 246.59 384 245.73 396.45 236.59 397.16 237.42 385.17" style="opacity:0.2"></polygon><path d="M191.39,275.54s66.37,6.28,64,26.26c-3.49,28.81-5.21,90.91-5.21,90.91l-16.92.67s-7.17-56-3.46-85.52c-17.17,0-59.22,1.23-63.06-9.12-3.38-9.14-2.17-23.2-2.17-23.2Z" style="fill:#263238"></path><polygon points="231.35 394.42 251.66 393.41 252.39 384.58 230.12 386.11 231.35 394.42" style="fill:#FAA627"></polygon><path d="M220.08,215.83l.57,4.6c.2,1.56.42,3.12.66,4.67.5,3.11,1,6.21,1.63,9.25s1.31,6,2.13,8.9a44,44,0,0,0,3,7.85,13.93,13.93,0,0,0,1.73,2.66c.1.12.31.32.52.52s.43.4.65.6c.46.39,1,.79,1.51,1.18a47.66,47.66,0,0,0,7.54,4.27A164.07,164.07,0,0,0,257.56,267l-1.08,6.86a80.22,80.22,0,0,1-10.22-1c-1.68-.26-3.37-.58-5-1s-3.38-.8-5.06-1.31A49.92,49.92,0,0,1,226,266.42a29.42,29.42,0,0,1-2.55-1.58c-.42-.3-.84-.59-1.26-.94a16.23,16.23,0,0,1-1.31-1.11,25.37,25.37,0,0,1-4.12-5.19,53.3,53.3,0,0,1-4.62-10.21,101.6,101.6,0,0,1-2.85-10.08c-.76-3.35-1.43-6.7-1.92-10.06-.26-1.68-.49-3.36-.71-5s-.38-3.33-.52-5.16Z" style="fill:#b55b52"></path><path d="M206.06,209.15c6.79-6.55,15.15-2.68,18.49,9.6a113.63,113.63,0,0,1,3.86,20.14l-21.49,4.44C203,231.61,199.12,215.87,206.06,209.15Z" style="fill:#FAA627"></path><path d="M213,222.56c-1.54-1.38-5.9,4.81-8.57,12.48.76,2.86,1.62,5.68,2.49,8.3l12.93-2.68C218.81,233,216.43,225.67,213,222.56Z" style="opacity:0.30000000000000004"></path><path d="M256.24,265.25l5.12.32-4.09,9.4s-8.83-.21-8.64-4.55l1.59-2.08A8.32,8.32,0,0,1,256.24,265.25Z" style="fill:#b55b52"></path><polygon points="266.94 266.33 262.52 274.97 257.27 274.97 261.36 265.57 266.94 266.33" style="fill:#b55b52"></polygon><path d="M206.86,202.58l-10.3-2.94L183.32,199a9.19,9.19,0,0,0-9.16,6.33c-2.53,7.7-4.85,18.85-6.54,28.47-1.9,10.78-2.89,27-3.09,41.73H214c1.13-30.73,5-48.9,6.77-59a9.16,9.16,0,0,0-5.09-9.83Z" style="fill:#FAA627"></path><path d="M172.58,210.67c-1.91,7-3.63,15.57-5,23.14a217.28,217.28,0,0,0-2.43,23.33c8.15-.81,17.15-10.19,20-22.82C188,222,181.39,209.18,172.58,210.67Z" style="opacity:0.30000000000000004"></path><path d="M200.67,182.91l4,6.11,5.45,8.33a8.23,8.23,0,0,0-1.68,2.46c-1,2-1.82,3.51,2.39,6.38a2.78,2.78,0,0,1,1.26,2.76c-.24,1.3-1.54,2.56-6.09,1.76a20.92,20.92,0,0,1-11.4-6.33c-1.52-1.51-1.17-2.65.29-4.22C199,195.72,200.26,188.63,200.67,182.91Z" style="fill:#b55b52"></path><path d="M208.78,195.3l-3.34-5.94-.23.49a16.2,16.2,0,0,0-.72,2.28c-.61,2.63,1.44,6.4,3.69,8.19l.26-.51a9.92,9.92,0,0,1,1.54-2.36.67.67,0,0,1,.14-.11Z" style="opacity:0.2"></path><path d="M207.25,218.82a.29.29,0,0,1-.07-.56l.71-.17c3.62-.79,12.1-2.64,11.33-35.18a.29.29,0,0,1,.28-.29h0a.29.29,0,0,1,.29.28c.78,33-8,34.93-11.78,35.75-.25,0-.48.1-.68.16Z" style="fill:#263238"></path><path d="M227.57,173.85c-1.46-4.36-6.7-1.46-6.7-1.46s-.07,9.13,2.74,11.47S229,178.25,227.57,173.85Z" style="fill:#263238"></path><path d="M202.08,172.09c-1.61,9.06-3,14.26.35,20.07a12,12,0,0,0,21.16-.61c3.83-7.47,5.81-21-2-27A12.1,12.1,0,0,0,202.08,172.09Z" style="fill:#b55b52"></path><path d="M200.37,177.42c-2.44,3.88,3.65,5.3,3.65,5.3s7.29-5.49,7.44-9.14S202.31,174.34,200.37,177.42Z" style="fill:#263238"></path><path d="M198,178.88c-1.2-1-2.52-4.81-1.51-8.16s4.23-7,7.13-5.81c1.08-3.09,15.92-6.89,20.88,0,5.78,8.05,2.75,12.19-2.06,9.07l-8.8-2.85Z" style="fill:#263238"></path><path d="M224.37,173.25c-2.35,2.78-11.26,2.15-11.26,2.15l2.92-3.2a9.76,9.76,0,0,1-6.76,1.87c-4.37-.25-2-4.74-2-4.74S228.79,168,224.37,173.25Z" style="fill:#263238"></path><path d="M197.2,178.65a8.14,8.14,0,0,0,1.83,5.51c1.66,2,4.22.4,4.82-2.06.53-2.21-.16-5.64-2.34-6.7S197.31,176.17,197.2,178.65Z" style="fill:#b55b52"></path><path d="M196.33,172.9a10.78,10.78,0,0,1,2.35-8.48c-.82.19-3.39-1.32,1.34-4.48s14.55-4,19.44-1.59c9.58,4.7,6.93,10.26,6.93,10.26Z" style="fill:#FAA627"></path><path d="M196.33,172.9a10.78,10.78,0,0,1,2.35-8.48c-.82.19-3.39-1.32,1.34-4.48s14.55-4,19.44-1.59c9.58,4.7,6.93,10.26,6.93,10.26Z" style="opacity:0.30000000000000004"></path><path d="M196.52,178.6c1.66.06,3.27-4.95,17.34-7.48,5.68-1,11.63.8,13.29,2.44s.88-3.75.28-5.68-9.39-3.47-15.1-2.78c-9.91,1.19-15.86,6.24-16.68,7.51S195,178.56,196.52,178.6Z" style="fill:#FAA627"></path><path d="M201.7,180a1.73,1.73,0,0,1-.73,2.26c-.73.23-1.59-.39-1.92-1.4a1.73,1.73,0,0,1,.73-2.26C200.51,178.37,201.37,179,201.7,180Z" style="fill:#263238"></path><path d="M202.88,274.54c-1.72,0-2.86-.46-3.49-1.41-1.54-2.3.43-7.05,2.52-12.08,2-4.7,4-9.57,3.44-12.91-1-6.37-.08-14.41.82-22.18.3-2.56.58-5,.79-7.32-3.87-4-7.77-9.13-5.72-19.69,1.36-7,1.06-12.8-.89-17.3a.27.27,0,0,1,.14-.37.29.29,0,0,1,.38.14c2,4.62,2.31,10.55.93,17.64-2,10.37,1.86,15.39,5.66,19.27a.32.32,0,0,1,.07.23c-.21,2.39-.49,4.86-.8,7.47-.89,7.73-1.82,15.73-.82,22,.56,3.5-1.49,8.44-3.48,13.22s-3.94,9.5-2.57,11.55c.52.78,1.51,1.16,3,1.16a.28.28,0,0,1,0,.56Z" style="fill:#263238"></path><path d="M215.89,180.47c-.23.71,0,1.42.41,1.59s1-.27,1.24-1,.06-1.42-.4-1.59S216.12,179.76,215.89,180.47Z" style="fill:#263238"></path><ellipse cx="224.63" cy="183.68" rx="1.35" ry="0.88" transform="translate(-15.83 346.08) rotate(-73.31)" style="fill:#263238"></ellipse><path d="M221.09,183a23.82,23.82,0,0,0,.74,6.27c-1.42.52-3-.71-3-.71Z" style="fill:#a02724"></path><path d="M216.85,192.45a6.45,6.45,0,0,1-3.77-3.33.22.22,0,0,1,.12-.28.22.22,0,0,1,.29.12,6.13,6.13,0,0,0,4.29,3.3.22.22,0,0,1,.17.26.22.22,0,0,1-.26.17A7.41,7.41,0,0,1,216.85,192.45Z" style="fill:#263238"></path><path d="M215.16,177.41a.45.45,0,0,1-.16-.15.43.43,0,0,1,.14-.6,4.21,4.21,0,0,1,3.93-.41.44.44,0,1,1-.38.79,3.36,3.36,0,0,0-3.08.35A.45.45,0,0,1,215.16,177.41Z" style="fill:#263238"></path><path d="M225.37,178.8a.42.42,0,0,1,0-.22.44.44,0,0,1,.57-.24,4.19,4.19,0,0,1,2.57,3,.44.44,0,0,1-.86.14,3.36,3.36,0,0,0-2.05-2.34A.41.41,0,0,1,225.37,178.8Z" style="fill:#263238"></path><path d="M188,212.73c-.83,1.5-1.74,3.21-2.6,4.83s-1.71,3.31-2.53,5c-1.65,3.33-3.2,6.68-4.61,10a77.64,77.64,0,0,0-3.46,10,30.88,30.88,0,0,0-.84,4.56c-.17,1.33.07,2.77,0,2.46a6,6,0,0,0,1.9,2,24.11,24.11,0,0,0,4,2.41,73.13,73.13,0,0,0,10,3.92C193.32,259,197,260,200.61,261s7.42,1.78,11.06,2.58l-.68,6.91A135.68,135.68,0,0,1,187.2,268a74.26,74.26,0,0,1-12-3.37,35.76,35.76,0,0,1-6.19-3.05,17.64,17.64,0,0,1-6.17-6.15,13.2,13.2,0,0,1-1.09-2.63l-.19-.69-.11-.54c-.09-.37-.14-.71-.2-1.07a24.87,24.87,0,0,1-.25-3.95,38.09,38.09,0,0,1,.79-6.91,77.37,77.37,0,0,1,3.56-12.15c1.43-3.84,3.06-7.54,4.81-11.16q1.32-2.72,2.73-5.37c.94-1.8,1.89-3.48,3-5.33Z" style="fill:#b55b52"></path><path d="M180.39,199.17c9.32-1.42,13.9,6.58,9.52,18.52a113.84,113.84,0,0,1-8.52,18.65l-20.09-8.81C164.9,215.71,170.83,200.62,180.39,199.17Z" style="fill:#FAA627"></path><path d="M212.48,263.66l5.58,1.91-7.41,7.08s-9.05-3.25-7.2-7.18l2.28-1.3A8.3,8.3,0,0,1,212.48,263.66Z" style="fill:#b55b52"></path><polygon points="224.63 269.33 216.26 274.26 210.66 272.65 218.06 265.57 224.63 269.33" style="fill:#b55b52"></polygon></g><g id="freepik--Desk--inject-138"><rect x="148.67" y="274.68" width="207.62" height="6.76" style="fill:#FAA627"></rect><rect x="148.67" y="274.68" width="207.62" height="6.76" style="fill:#fff;opacity:0.6000000000000001"></rect><rect x="148.67" y="274.68" width="41.43" height="6.76" transform="translate(338.76 556.12) rotate(180)" style="fill:#FAA627;opacity:0.5"></rect><path d="M300.06,272.44H202.23a2.25,2.25,0,0,0-2.24,2.24H302.31A2.25,2.25,0,0,0,300.06,272.44Z" style="fill:#FAA627"></path><path d="M313,226.67H246.15a2.07,2.07,0,0,0-1.88,1.48l-11,41.24a1.1,1.1,0,0,0,1.09,1.48h66.88a2,2,0,0,0,1.87-1.48l11-41.24A1.1,1.1,0,0,0,313,226.67Z" style="fill:#FAA627"></path><path d="M244.27,228.15l-11,41.24a1.1,1.1,0,0,0,1.09,1.48l11.76-44.2A2.07,2.07,0,0,0,244.27,228.15Z" style="opacity:0.2"></path><path d="M230.78,272.44H202.23a2.25,2.25,0,0,0-2.24,2.24h33A2.25,2.25,0,0,0,230.78,272.44Z" style="opacity:0.2"></path><path d="M191.56,416.24h4l-5.61-30.9h3.49v-4H189.2l-17.42-95.94h2.57v-4h-9.94v4H167l-17.42,95.94h-4.22v4h3.49l-5.61,30.9h4l5.61-30.9H186Zm-38-34.88,15.85-87.25,15.84,87.25Z" style="fill:#FAA627"></path><path d="M356.24,412.56h4l-5.61-27.22h3.49v-4h-4.22l-17.42-95.94H339v-4h-9.94v4h2.57l-17.42,95.94H310v4h3.49l-5.61,27.22h4l5.61-27.22h33.14Zm-38-31.2,15.84-87.25,15.85,87.25Z" style="fill:#FAA627"></path><rect x="311.4" y="272.44" width="27.1" height="2.24" rx="0.73" style="fill:#263238"></rect></g><g id="freepik--Coding--inject-138"><path d="M266.6,218.94a1.29,1.29,0,0,1-1.3-1.43l4.11-46.24a1.6,1.6,0,0,1,1.56-1.43h56.28a1.29,1.29,0,0,1,1.3,1.43l-4.11,46.24a1.6,1.6,0,0,1-1.56,1.43Z" style="fill:#263238;opacity:0.9"></path><polygon points="314.08 184.23 281.51 184.23 281.62 183.03 314.19 183.03 314.08 184.23" style="fill:#fff"></polygon><polygon points="319.19 186.15 284.69 186.15 284.79 184.95 319.3 184.95 319.19 186.15" style="fill:#FAA627"></polygon><polygon points="313.11 188.07 284.52 188.07 284.62 186.87 313.21 186.87 313.11 188.07" style="fill:#FAA627"></polygon><polygon points="309.95 189.99 284.35 189.99 284.45 188.79 310.06 188.79 309.95 189.99" style="fill:#FAA627"></polygon><polygon points="301.89 193.12 280.73 193.12 280.83 191.91 301.99 191.91 301.89 193.12" style="fill:#fff"></polygon><polygon points="306.38 197.67 283.66 197.67 283.56 198.88 306.27 198.88 306.38 197.67" style="fill:#FAA627"></polygon><polygon points="302.66 195.75 283.83 195.75 283.73 196.96 302.55 196.96 302.66 195.75" style="fill:#FAA627"></polygon><polygon points="304.74 193.83 284 193.83 283.9 195.04 304.63 195.04 304.74 193.83" style="fill:#FAA627"></polygon><polygon points="300.58 207.76 279.42 207.76 279.53 206.56 300.69 206.56 300.58 207.76" style="fill:#fff"></polygon><polygon points="305.08 212.32 282.36 212.32 282.25 213.52 304.97 213.52 305.08 212.32" style="fill:#FAA627"></polygon><polygon points="301.36 210.4 282.53 210.4 282.43 211.6 301.25 211.6 301.36 210.4" style="fill:#FAA627"></polygon><polygon points="303.44 208.48 282.7 208.48 282.6 209.68 303.33 209.68 303.44 208.48" style="fill:#FAA627"></polygon><polygon points="292.04 175.28 274.86 175.28 274.96 174.07 292.15 174.07 292.04 175.28" style="fill:#fff"></polygon><polygon points="295.62 179.83 277.17 179.83 277.06 181.04 295.51 181.04 295.62 179.83" style="fill:#fff"></polygon><polygon points="292.62 177.91 277.34 177.91 277.23 179.12 292.52 179.12 292.62 177.91" style="fill:#fff"></polygon><polygon points="294.34 175.99 277.51 175.99 277.4 177.2 294.24 177.2 294.34 175.99" style="fill:#fff"></polygon><polygon points="305.87 203.43 283.15 203.43 283.04 204.64 305.76 204.64 305.87 203.43" style="fill:#FAA627"></polygon><polygon points="302.15 201.51 283.32 201.51 283.21 202.72 302.04 202.72 302.15 201.51" style="fill:#FAA627"></polygon><polygon points="304.23 199.59 283.49 199.59 283.39 200.8 304.12 200.8 304.23 199.59" style="fill:#FAA627"></polygon><path d="M345.72,163.42H308.21a2.34,2.34,0,0,1-2.36-2.59l2.82-31.71a2.79,2.79,0,0,1,2.73-2.5h37.5a2.34,2.34,0,0,1,2.36,2.59l-2.82,31.71A2.78,2.78,0,0,1,345.72,163.42Zm-34.32-35.8a1.79,1.79,0,0,0-1.74,1.59l-2.81,31.71a1.35,1.35,0,0,0,.34,1.07,1.37,1.37,0,0,0,1,.43h37.51a1.78,1.78,0,0,0,1.73-1.59l2.82-31.71a1.39,1.39,0,0,0-.35-1.06,1.36,1.36,0,0,0-1-.44Z" style="fill:#FAA627"></path><path d="M350.2,136.07H308.6a.5.5,0,0,1-.5-.5.5.5,0,0,1,.5-.5h41.6a.5.5,0,0,1,.5.5A.51.51,0,0,1,350.2,136.07Z" style="fill:#FAA627"></path><path d="M316,163.42h-.05a.49.49,0,0,1-.45-.54l2.43-27.36a.51.51,0,0,1,.54-.45.5.5,0,0,1,.46.54L316.49,163A.51.51,0,0,1,316,163.42Z" style="fill:#FAA627"></path><path d="M345.32,139.32H322.74a.5.5,0,0,1-.5-.5.5.5,0,0,1,.5-.5h22.58a.5.5,0,0,1,.5.5A.5.5,0,0,1,345.32,139.32Z" style="fill:#FAA627"></path><path d="M341.78,143.31h-19.4a.51.51,0,0,1-.5-.5.5.5,0,0,1,.5-.5h19.4a.5.5,0,0,1,.5.5A.5.5,0,0,1,341.78,143.31Z" style="fill:#FAA627"></path><path d="M333.31,147.42H322a.5.5,0,0,1-.5-.5.5.5,0,0,1,.5-.5h11.29a.51.51,0,0,1,.5.5A.5.5,0,0,1,333.31,147.42Z" style="fill:#FAA627"></path><path d="M335.09,155.45H321.3a.5.5,0,0,1-.5-.5.51.51,0,0,1,.5-.5h13.79a.51.51,0,0,1,.5.5A.5.5,0,0,1,335.09,155.45Z" style="fill:#FAA627"></path><path d="M332.23,159.57H320.94a.5.5,0,0,1,0-1h11.29a.5.5,0,0,1,0,1Z" style="fill:#FAA627"></path><path d="M338.84,159.57h-3.62a.5.5,0,0,1,0-1h3.62a.5.5,0,0,1,0,1Z" style="fill:#FAA627"></path><path d="M342.81,151.41H321.66a.5.5,0,0,1,0-1h21.15a.5.5,0,0,1,0,1Z" style="fill:#FAA627"></path><path d="M268.14,160.31a.51.51,0,0,1-.36-.15.5.5,0,0,1,0-.7l2.5-2.5-2.5-2.49a.5.5,0,0,1,.71-.71l2.85,2.85a.51.51,0,0,1,0,.71l-2.85,2.84A.49.49,0,0,1,268.14,160.31Z" style="fill:#263238"></path><path d="M259.6,160.31a.49.49,0,0,1-.35-.15l-2.85-2.84a.51.51,0,0,1,0-.71l2.85-2.85a.5.5,0,1,1,.71.71l-2.5,2.49,2.5,2.5a.5.5,0,0,1,0,.7A.51.51,0,0,1,259.6,160.31Z" style="fill:#263238"></path><path d="M262.8,160.31a.51.51,0,0,1-.17,0,.5.5,0,0,1-.29-.64l2.13-5.7a.5.5,0,0,1,.64-.29.5.5,0,0,1,.3.64l-2.14,5.7A.49.49,0,0,1,262.8,160.31Z" style="fill:#263238"></path><path d="M331.93,234.1a.47.47,0,0,1-.35-.15.5.5,0,0,1,0-.71l2.49-2.49-2.49-2.5a.49.49,0,1,1,.7-.7l2.85,2.84a.53.53,0,0,1,.15.36.51.51,0,0,1-.15.35L332.28,234A.47.47,0,0,1,331.93,234.1Z" style="fill:#FAA627"></path><path d="M323.39,234.1A.5.5,0,0,1,323,234l-2.85-2.85a.51.51,0,0,1,0-.71l2.85-2.84a.5.5,0,0,1,.71,0,.5.5,0,0,1,0,.7l-2.5,2.5,2.5,2.49a.51.51,0,0,1,0,.71A.51.51,0,0,1,323.39,234.1Z" style="fill:#FAA627"></path><path d="M326.6,234.1a.39.39,0,0,1-.18,0,.49.49,0,0,1-.29-.64l2.13-5.7a.5.5,0,0,1,.94.35l-2.14,5.7A.49.49,0,0,1,326.6,234.1Z" style="fill:#FAA627"></path><path d="M309.35,120.7a.51.51,0,0,1-.36-.15.5.5,0,0,1,0-.7l2.5-2.5-2.5-2.49a.5.5,0,0,1,.71-.71l2.85,2.85a.51.51,0,0,1,0,.71l-2.85,2.84A.49.49,0,0,1,309.35,120.7Z" style="fill:#FAA627"></path><path d="M300.81,120.7a.5.5,0,0,1-.35-.15l-2.85-2.84a.51.51,0,0,1,0-.71l2.85-2.85a.5.5,0,1,1,.71.71l-2.5,2.49,2.5,2.5a.5.5,0,0,1,0,.7A.51.51,0,0,1,300.81,120.7Z" style="fill:#FAA627"></path><path d="M304,120.7l-.17,0a.5.5,0,0,1-.29-.64l2.13-5.7a.5.5,0,0,1,.64-.29.5.5,0,0,1,.3.64l-2.14,5.7A.49.49,0,0,1,304,120.7Z" style="fill:#FAA627"></path></g></svg>