<svg xmlns="http://www.w3.org/2000/svg" viewBox="0 0 500 500"><g id="freepik--Shadow--inject-1"><ellipse id="freepik--path--inject-1" cx="250" cy="416.24" rx="193.89" ry="11.32" style="fill:#f5f5f5"></ellipse></g><g id="freepik--Bucket--inject-1"><path d="M249.79,406.9l6.52-50.44H202.82l6.52,50.44a1.33,1.33,0,0,0-1,1.27,1.36,1.36,0,0,0,1.35,1.35h39.73a1.36,1.36,0,0,0,1.35-1.35A1.34,1.34,0,0,0,249.79,406.9Z" style="fill:#FAA627"></path><path d="M249.79,406.9l6.52-50.44H202.82l6.52,50.44a1.33,1.33,0,0,0-1,1.27,1.36,1.36,0,0,0,1.35,1.35h39.73a1.36,1.36,0,0,0,1.35-1.35A1.34,1.34,0,0,0,249.79,406.9Z" style="fill:#fff;opacity:0.4"></path><polygon points="256.31 356.46 202.82 356.46 203.75 363.69 255.8 360.41 256.31 356.46" style="opacity:0.2"></polygon><path d="M255.61,354.67h-3.55a22.57,22.57,0,0,0-45,0h-3.55a1.79,1.79,0,0,0,0,3.58h52.09a1.79,1.79,0,0,0,0-3.58Zm-26.05-19.78A21.6,21.6,0,0,1,251,354.67H208.09A21.59,21.59,0,0,1,229.56,334.89Z" style="fill:#FAA627"></path><path d="M255.61,354.67h-3.55a22.57,22.57,0,0,0-45,0h-3.55a1.79,1.79,0,0,0,0,3.58h52.09a1.79,1.79,0,0,0,0-3.58Zm-26.05-19.78A21.6,21.6,0,0,1,251,354.67H208.09A21.59,21.59,0,0,1,229.56,334.89Z" style="fill:#fff;opacity:0.4"></path></g><g id="freepik--Character--inject-1"><rect x="316.33" y="339.44" width="72.32" height="6.36" style="fill:#FAA627"></rect><rect x="370.99" y="339.44" width="17.65" height="6.36" style="opacity:0.2"></rect><polygon points="328.63 411.86 321.85 411.86 376.34 345.81 383.12 345.81 328.63 411.86" style="fill:#263238"></polygon><polygon points="376.34 411.86 383.12 411.86 328.63 345.81 321.85 345.81 376.34 411.86" style="fill:#263238"></polygon><path d="M348.71,241c5.26-3.92,11.72-8.88,25.31-8.5,17.81.5,11.21,17.68,8.94,17.5Z" style="fill:#FAA627"></path><path d="M355.43,238.68c.45-2.07,10.46-5.86,19.17-4.9,9.1,1,3.93,6.25,2.48,6.14Z" style="opacity:0.2"></path><path d="M350.51,242.23a7,7,0,0,0-7.9,6v.09c-.23,1.68-.53,3.56-.85,5.36s-.66,3.63-1,5.44q-1.1,5.43-2.45,10.78c-.91,3.57-1.95,7.07-3.08,10.52-.28.81-.59,1.61-.88,2.41-.62-1.16-1.23-2.38-1.84-3.64L331.41,277l-.54-1.11-.25-.56c-.08-.08,0-.2-.24-.23a5.79,5.79,0,0,0-1.68.19l-3.19.65a16.9,16.9,0,0,0-3.5,1.16,5.4,5.4,0,0,0-1.5.85c-.17.18,0,.27-.05.41l.14.73.3,1.45c.21,1,.49,1.91.76,2.86A36.36,36.36,0,0,0,324,289a28.32,28.32,0,0,0,3.83,5.73,15.81,15.81,0,0,0,3.36,2.91,11.31,11.31,0,0,0,5.72,1.74,6.18,6.18,0,0,0,5.57-3.42l0-.1c1.82-3.67,3.42-7.39,4.83-11.13s2.64-7.51,3.75-11.3,2.11-7.59,3-11.42q.66-2.87,1.25-5.76c.41-2,.76-3.82,1.11-5.91a1.25,1.25,0,0,0,0-.19A7,7,0,0,0,350.51,242.23Zm-13,44.84a.72.72,0,0,1-.25-.13C337.46,287,337.57,287.09,337.51,287.07Z" style="fill:#FAA627"></path><path d="M331.44,276.19l-2.09-5L323,276.76s2.16,4.86,5.56,3.12Z" style="fill:#ffc3bd"></path><polygon points="322.97 268.63 319.27 273.22 323.01 276.76 329.35 271.2 322.97 268.63" style="fill:#ffc3bd"></polygon><path d="M367.33,238.71a90.9,90.9,0,0,0-15.41.88,11.19,11.19,0,0,0-9.26,8.26c-2.67,10.27-6.18,31.78-1,63.39h43.48c.3-3.88-.59-16.51.07-32.6a228.36,228.36,0,0,1,3.18-29.77c.06-.34.12-.67.19-1a6.92,6.92,0,0,0-6.11-8.2C378.48,239.29,373.18,238.88,367.33,238.71Z" style="fill:#FAA627"></path><path d="M385.1,300.9c-1.22.11-6.23,1.34-7.43,1.43l-5.29,7.13c5.87,0,11.75-2.31,12.81-3.78C385.17,304.27,385.13,302.67,385.1,300.9Z" style="opacity:0.2"></path><path d="M369.72,242.67H368c-.72,1.22-2,11.05-.67,12.27l2.39-.5S368.44,247.39,369.72,242.67Z" style="fill:#fff"></path><path d="M356.12,242.62l-1.75-.15c-1.08,1.1-4.12,9.15-3.38,11.16l2.29.53S353.5,247,356.12,242.62Z" style="fill:#fff"></path><path d="M381.42,259c-.86,4,0,14.18,3.82,19.75v-.06c.16-3.86.43-7.75.77-11.52Z" style="opacity:0.2"></path><path d="M349.61,282.41l19.44.69a1.48,1.48,0,0,1,1.45,1.51c-.06,3.41.17,12.12,3.61,19a1.5,1.5,0,0,1-1.09,2.17c-4.6.7-16,1.88-26.27-1.46a1.45,1.45,0,0,1-.94-.9c-1.33-3.77-.89-14.16,2.45-20.3A1.48,1.48,0,0,1,349.61,282.41Z" style="fill:#fff;opacity:0.2"></path><polygon points="239.59 409.73 234.56 403.34 247.58 389.48 252.62 395.87 239.59 409.73" style="fill:#ffc3bd"></polygon><path d="M235.85,401.39l5.65,7.18a.57.57,0,0,1-.06.81L236,414.2a1.44,1.44,0,0,1-2-.22c-1.92-2.53-2.72-3.84-5.2-7-1.53-1.94-5.84-7.13-7.61-10.05s1.18-4.58,2.19-3.5c4.52,4.85,8.36,6.48,11.19,7.17A2.28,2.28,0,0,1,235.85,401.39Z" style="fill:#263238"></path><polygon points="252.62 395.88 247.58 389.48 240.87 396.63 245.9 403.02 252.62 395.88" style="opacity:0.2"></polygon><path d="M341.64,310.83s-44.4,6.89-53.07,21.55c-17,28.85-46.18,57.51-46.18,57.51l9.67,11.33s46.83-36.88,62.19-61c15.6.2,52.22,1.71,55.77-7.92a31.43,31.43,0,0,0-.27-21.36Z" style="fill:#263238"></path><path d="M341.64,310.83s-44.4,6.89-53.07,21.55c-17,28.85-46.18,57.51-46.18,57.51l9.67,11.33s46.83-36.88,62.19-61c15.6.2,52.22,1.71,55.77-7.92a31.43,31.43,0,0,0-.27-21.36Z" style="opacity:0.30000000000000004"></path><polygon points="250 404.4 239.7 391.32 243.83 386.16 256.54 399.61 250 404.4" style="fill:#FAA627"></polygon><path d="M233,400a11.17,11.17,0,0,0,1.57,1.53.22.22,0,0,0,.21,0,.18.18,0,0,0,.1-.18c0-.32-.21-3.1-1.13-3.64a.7.7,0,0,0-.69,0,1,1,0,0,0-.66.82A2.22,2.22,0,0,0,233,400Zm1.47.95c-1.13-1-1.76-1.84-1.7-2.37a.7.7,0,0,1,.45-.52.34.34,0,0,1,.34,0C234,398.35,234.31,399.83,234.42,401Z" style="fill:#FAA627"></path><path d="M234.49,401.49a.19.19,0,0,0,.07.06.21.21,0,0,0,.19,0c.08-.06,2-1.36,2.14-2.5a.92.92,0,0,0-.29-.79.72.72,0,0,0-.87-.19c-.81.41-1.4,2.41-1.28,3.34A.19.19,0,0,0,234.49,401.49Zm1.9-2.91a.61.61,0,0,1,.13.43c-.07.67-1.08,1.55-1.7,2,0-.92.54-2.35,1.08-2.62.1,0,.24-.08.44.12Z" style="fill:#FAA627"></path><polygon points="292.5 412.85 284.44 411.82 291.58 393.75 299.65 394.79 292.5 412.85" style="fill:#ffc3bd"></polygon><path d="M284.22,409.6l9,1.33a.58.58,0,0,1,.51.64l-.61,7.21a1.43,1.43,0,0,1-1.62,1.22c-3.13-.51-4.61-.92-8.59-1.5-2.44-.36-10.77-1.32-14.15-1.82s-2.79-3.82-1.31-3.91c6.61-.41,12.74-1.42,15.27-2.88A2.32,2.32,0,0,1,284.22,409.6Z" style="fill:#263238"></path><polygon points="299.65 394.79 291.58 393.76 287.9 403.07 295.97 404.1 299.65 394.79" style="opacity:0.2"></polygon><path d="M361.89,310.83S301.75,297.72,303.07,321c1.44,25.49-17.22,77.75-17.22,77.75l13.55,2.51s28.76-39.48,25.5-65.44c12.29,4.05,53.81,10.65,58.84-3a40,40,0,0,0,1.43-21.6Z" style="fill:#263238"></path><polygon points="301.39 403.1 284.44 400.05 285.5 392.43 303.72 396.25 301.39 403.1" style="fill:#FAA627"></polygon><path d="M281.16,410.59a10.08,10.08,0,0,0,2.19,0,.17.17,0,0,0,.16-.12.19.19,0,0,0-.05-.2c-.23-.22-2.28-2.11-3.32-1.87a.71.71,0,0,0-.51.47,1,1,0,0,0,.08,1.05A2.24,2.24,0,0,0,281.16,410.59Zm1.71-.32c-1.48.07-2.53-.13-2.85-.56a.66.66,0,0,1,0-.69.34.34,0,0,1,.25-.23C280.79,408.66,282,409.54,282.87,410.27Z" style="fill:#FAA627"></path><path d="M283.3,410.61a.14.14,0,0,0,.09,0,.21.21,0,0,0,.13-.13c0-.1.54-2.39-.16-3.29a1,1,0,0,0-.76-.38.73.73,0,0,0-.76.47c-.31.85.64,2.71,1.37,3.3A.18.18,0,0,0,283.3,410.61Zm-.62-3.42a.57.57,0,0,1,.38.22,4.24,4.24,0,0,1,.16,2.64c-.62-.7-1.23-2.09-1-2.65,0-.1.12-.22.39-.22Z" style="fill:#FAA627"></path><path d="M159.74,188c18.63,8.54,37,17.5,55.34,26.71s36.42,18.75,54.41,28.57,35.7,20.12,53.24,30.73,34.66,21.93,51.41,33.8l-2,2.76c-16.54-12-33.56-23.3-50.88-34.17s-35-21.17-52.84-31.19-35.89-19.68-54.07-29.07-36.51-18.52-55-27.23Z" style="fill:#263238"></path><path d="M327.06,282.05c-13.51-8.44-27.1-16.77-40.9-24.73s-27.67-15.81-41.69-23.39-28.1-15-42.29-22.29-28.45-14.35-42.85-21.18l.17,0a164.16,164.16,0,0,0-11.64,12.1c-3.71,4.2-7.19,8.59-10.57,13.07a296.31,296.31,0,0,0-18.57,28,373.14,373.14,0,0,0-28.49,60.8,408.46,408.46,0,0,0-17.65,64.8q-3,16.55-4.77,33.27C66.69,413.61,66,424.8,65.71,436a.25.25,0,0,1-.26.24.25.25,0,0,1-.24-.25h0c.33-11.21,1-22.41,2.12-33.58s2.79-22.26,4.81-33.3a407.6,407.6,0,0,1,17.71-64.85,374,374,0,0,1,28.56-60.85,297.09,297.09,0,0,1,18.62-28c3.38-4.48,6.87-8.87,10.59-13.08a160.81,160.81,0,0,1,11.68-12.11.12.12,0,0,1,.16,0c14.4,6.85,28.66,14,42.85,21.22s28.27,14.72,42.27,22.33,27.89,15.43,41.67,23.43,27.38,16.31,40.89,24.76a.07.07,0,0,1,0,.11A.08.08,0,0,1,327.06,282.05Z" style="fill:#263238"></path><path d="M64.51,433.9a2.94,2.94,0,0,0-1.93,2.83v4.81h5.75v-4.91A2.89,2.89,0,0,0,64.51,433.9Z" style="fill:#FAA627"></path><rect x="62.58" y="438.08" width="5.75" height="1.67" style="fill:#fff;opacity:0.8"></rect><path d="M173.3,196l-.38.7a1.16,1.16,0,0,1-1.58.47h0a1.16,1.16,0,0,1-.47-1.58l.38-.7a1.16,1.16,0,0,1,1.58-.47h0A1.16,1.16,0,0,1,173.3,196Z" style="fill:#263238"></path><path d="M226.9,223.29l-.38.7a1.17,1.17,0,0,1-1.59.47h0a1.18,1.18,0,0,1-.47-1.58l.38-.7a1.17,1.17,0,0,1,1.59-.47h0A1.16,1.16,0,0,1,226.9,223.29Z" style="fill:#263238"></path><path d="M283.1,253.81l-.38.7a1.17,1.17,0,0,1-1.59.47h0a1.16,1.16,0,0,1-.46-1.58l.38-.7a1.16,1.16,0,0,1,1.58-.47h0A1.16,1.16,0,0,1,283.1,253.81Z" style="fill:#263238"></path><path d="M338.85,282l-4.54,8.35a.86.86,0,0,1-1.25.3l-12-8.11a.88.88,0,0,1-.28-1.14l4.54-8.35a.86.86,0,0,1,1.25-.3l12,8.11A.88.88,0,0,1,338.85,282Z" style="fill:#263238"></path><path d="M330.12,291.52a.79.79,0,0,1-.45-.13L322,286.22a.79.79,0,0,1-.26-1.05l2.89-5.32a.79.79,0,0,1,.52-.39.77.77,0,0,1,.64.11l7.64,5.17a.79.79,0,0,1,.26,1.05h0l-2.89,5.31a.79.79,0,0,1-.51.4A.65.65,0,0,1,330.12,291.52Zm-4.76-11.59h-.08a.32.32,0,0,0-.19.15l-2.89,5.32a.31.31,0,0,0,.1.4L330,291a.29.29,0,0,0,.24,0,.32.32,0,0,0,.19-.15l2.89-5.32a.3.3,0,0,0-.1-.4L325.53,280A.34.34,0,0,0,325.36,279.93Zm8.13,5.74h0Z" style="fill:#263238"></path><path d="M338.07,279.37l-.37.68a.38.38,0,0,1-.56.14L329,274.68a.47.47,0,0,1-.15-.62l.37-.68a.38.38,0,0,1,.56-.14l8.11,5.51A.47.47,0,0,1,338.07,279.37Z" style="fill:#263238"></path><path d="M372,300.76l-5.39.24,3,7.87s5.31-.34,4.85-4.13Z" style="fill:#ffc3bd"></path><polygon points="361.98 306.09 365 311.15 369.62 308.87 366.61 301 361.98 306.09" style="fill:#ffc3bd"></polygon><path d="M375.28,218l-4.95,4.1-6.73,5.6a21.87,21.87,0,0,1,.42,2.72c.37,3.65-.68,7.26-6,8.53,0,0-4.21,1.48,6.36,1.63s12.08-1.39,12.08-1.39C372.38,235.2,373.91,223.94,375.28,218Z" style="fill:#ffc3bd"></path><path d="M363.6,227.68a21.87,21.87,0,0,1,.42,2.72c2.52-.51,5.87-3.18,6.22-5.75a11.57,11.57,0,0,0,.09-2.57Z" style="opacity:0.2"></path><path d="M359,213.63c-3.85-.88-5.7-7-4.32-11.76,1.83-6.26,8-5.84,12.69-2.19C373.2,204.18,365,215,359,213.63Z" style="fill:#263238"></path><path d="M377.32,209.42c-1.72,7.9-2.33,12.6-7,16.21a10.51,10.51,0,0,1-17-7.57c-.62-7.36,2.3-19.05,10.62-21.29A10.64,10.64,0,0,1,377.32,209.42Z" style="fill:#ffc3bd"></path><path d="M373.24,215.31c-3.46-1.9-2.43-10.94-.92-12.5s9.3-3.42,12.81,1.38C389.45,210.11,378.6,218.24,373.24,215.31Z" style="fill:#263238"></path><path d="M375.83,203.15c-4.88,1.22-4-3-12.61-2-6.35.69-11.65-3.9-11.52-9.28.16-6.61,9.11-10.09,13.92-4.47s8.62,10,16.42,9.34c6.06-.5,6.59,8.76-.08,9.55C378,206.73,375.83,203.15,375.83,203.15Z" style="fill:#263238"></path><path d="M360.55,201.49a10.87,10.87,0,0,1-5.94-1.73,8.93,8.93,0,0,1-4.08-6.17.25.25,0,0,1,.21-.28.26.26,0,0,1,.29.21,8.33,8.33,0,0,0,3.85,5.82,10.71,10.71,0,0,0,8.73,1.23.24.24,0,0,1,.3.17.25.25,0,0,1-.17.31A11.63,11.63,0,0,1,360.55,201.49Z" style="fill:#263238"></path><path d="M378.71,216.57a7.24,7.24,0,0,1-3.89,3.31c-2.15.72-3.13-1.21-2.45-3.34.61-1.9,2.47-4.58,4.59-4.38S379.77,214.65,378.71,216.57Z" style="fill:#ffc3bd"></path><path d="M363.78,210.14c-.1.65-.53,1.13-1,1.08s-.69-.61-.59-1.26.53-1.13,1-1.08S363.88,209.49,363.78,210.14Z" style="fill:#263238"></path><path d="M356.42,209.27c-.1.64-.53,1.13-1,1.08s-.69-.62-.59-1.27.53-1.13,1-1.08S356.52,208.62,356.42,209.27Z" style="fill:#263238"></path><path d="M358.66,209.53a21,21,0,0,1-3.08,4.62,3.18,3.18,0,0,0,2.62.64Z" style="fill:#ed847e"></path><path d="M358.22,218a5.66,5.66,0,0,0,4.28-1.11.19.19,0,0,0,0-.27.18.18,0,0,0-.27,0,5.44,5.44,0,0,1-4.69.88.19.19,0,0,0-.23.13.19.19,0,0,0,.14.24A6.63,6.63,0,0,0,358.22,218Z" style="fill:#263238"></path><path d="M368,206.12a.38.38,0,0,0,.17-.08.39.39,0,0,0,0-.55,3.72,3.72,0,0,0-3.24-1.27.37.37,0,0,0-.31.44.39.39,0,0,0,.44.32,2.94,2.94,0,0,1,2.53,1A.38.38,0,0,0,368,206.12Z" style="fill:#263238"></path><path d="M354,204.55a.38.38,0,0,0,.35-.08,3.19,3.19,0,0,1,2.75-.74.38.38,0,0,0,.47-.27.38.38,0,0,0-.26-.47h0a4,4,0,0,0-3.45.89.39.39,0,0,0-.05.54A.35.35,0,0,0,354,204.55Z" style="fill:#263238"></path><path d="M401.09,276.45a51.36,51.36,0,0,0-2.85-9.78,87,87,0,0,0-4-8.74c-.75-1.4-1.51-2.78-2.32-4.14l-1.22-2c-.44-.69-.82-1.31-1.35-2.1l-.16-.23a7,7,0,1,0-11.31,8.26h0c.31.43.74,1.05,1.11,1.6l1.12,1.72c.75,1.16,1.46,2.34,2.15,3.54a74.91,74.91,0,0,1,3.73,7.22,39,39,0,0,1,2.46,7.13,13.78,13.78,0,0,1,.35,4.93,28.72,28.72,0,0,1-3.22,3.82,40.38,40.38,0,0,1-4.91,4.14c-1.77,1.29-3.61,2.51-5.51,3.68-.93.61-1.9,1.16-2.86,1.74l-1.44.83-.72.38c-.1.1-.26,0-.3.3a2.41,2.41,0,0,0,0,.58,4.32,4.32,0,0,0,.1.5,5.84,5.84,0,0,0,.15.6l1.61,5.14a4.45,4.45,0,0,0,.74,1.39c.13.17.25.35.37.52a2.53,2.53,0,0,0,.31.42,1.91,1.91,0,0,0,.44.41c.25.14.38,0,.55,0l1-.32c.64-.22,1.28-.44,1.9-.68,1.26-.47,2.47-1,3.69-1.58a49.06,49.06,0,0,0,6.94-4.08,56.75,56.75,0,0,0,6.39-5.2,47.08,47.08,0,0,0,5.68-6.37,5,5,0,0,0,.69-1.31l.08-.22a19.84,19.84,0,0,0,1.1-6.39A29.77,29.77,0,0,0,401.09,276.45Z" style="fill:#FAA627"></path></g></svg>