<svg id="圖層_1" data-name="圖層 1" xmlns="http://www.w3.org/2000/svg" viewBox="0 0 320.01 190.24"><defs><style>.cls-1{fill:#ff971f;opacity:0;}.cls-2{fill:#0971f1;}</style></defs><rect class="cls-1" width="320.01" height="190.24"/><path class="cls-2" d="M715.43,315.45H788a1.66,1.66,0,0,1,.92.28l39.87,26.58a1.66,1.66,0,0,1-.92,3H743.67v84.21a1.66,1.66,0,0,1-3,.92l-26.58-39.86a1.71,1.71,0,0,1-.28-.92V317.12A1.66,1.66,0,0,1,715.43,315.45Z" transform="translate(-611.64 -307)"/><path class="cls-2" d="M776.15,377l37.7,25.13a1.66,1.66,0,0,1-.92,3h-37.7a1.66,1.66,0,0,1-1.66-1.66V378.35A1.66,1.66,0,0,1,776.15,377Z" transform="translate(-611.64 -307)"/><path class="cls-2" d="M642,488.28h-6.38l-4.06-7.51h-2.12v7.51h-5.95V465h9.3a8.26,8.26,0,0,1,6,2.3,7.43,7.43,0,0,1,2.43,5.74,7.22,7.22,0,0,1-1.07,3.82,7.67,7.67,0,0,1-2.89,2.79Zm-9.27-17.77h-3.29v5.21h3.29a2.25,2.25,0,0,0,1.79-.7,2.9,2.9,0,0,0,0-3.78A2.34,2.34,0,0,0,632.72,470.51Z" transform="translate(-611.64 -307)"/><path class="cls-2" d="M650,479.28v3.42h9v5.58H644.08V465h14.78v5.55H650v3.23h8v5.48Z" transform="translate(-611.64 -307)"/><path class="cls-2" d="M682.78,488.28h-6.41l-1-3.36h-7.74l-1,3.36h-6.44L667.86,465h7.24Zm-11.3-16.38-2.32,7.91h4.68Z" transform="translate(-611.64 -307)"/><path class="cls-2" d="M694.87,488.78A12.13,12.13,0,1,1,700.72,466a11.25,11.25,0,0,1,4.22,4l-5.15,3a4.89,4.89,0,0,0-2-1.95,6.59,6.59,0,0,0-7.46,1.05,7,7,0,0,0,0,9.14,6.11,6.11,0,0,0,4.52,1.72,6,6,0,0,0,2.94-.71,4.84,4.84,0,0,0,2-2l5.15,3a11,11,0,0,1-4.21,4A12,12,0,0,1,694.87,488.78Z" transform="translate(-611.64 -307)"/><path class="cls-2" d="M705.7,465h17.44v5.75h-5.75v17.51h-5.94V470.77H705.7Z" transform="translate(-611.64 -307)"/><path class="cls-2" d="M744.07,488.78A12.13,12.13,0,1,1,749.91,466a11.18,11.18,0,0,1,4.22,4L749,473a4.81,4.81,0,0,0-2-1.95,6.59,6.59,0,0,0-7.46,1.05,7,7,0,0,0,0,9.14,6.11,6.11,0,0,0,4.52,1.72,6,6,0,0,0,2.94-.71,4.76,4.76,0,0,0,2-2l5.15,3a11,11,0,0,1-4.2,4A12,12,0,0,1,744.07,488.78Z" transform="translate(-611.64 -307)"/><path class="cls-2" d="M775.66,485.29a12.48,12.48,0,0,1-17.31,0,11.74,11.74,0,0,1-3.52-8.64,11.61,11.61,0,0,1,3.52-8.6,12.4,12.4,0,0,1,17.31,0,11.56,11.56,0,0,1,3.55,8.6A11.76,11.76,0,0,1,775.66,485.29Zm-13.12-4.09a6.28,6.28,0,0,0,10.76-4.55,6,6,0,0,0-1.79-4.52,6.51,6.51,0,0,0-9,0,6,6,0,0,0-1.8,4.52A6.14,6.14,0,0,0,762.54,481.2Z" transform="translate(-611.64 -307)"/><path class="cls-2" d="M801.9,485.29a12.18,12.18,0,0,1-20.83-8.64,11.65,11.65,0,0,1,3.52-8.6,12.4,12.4,0,0,1,17.31,0,11.57,11.57,0,0,1,3.56,8.6A11.77,11.77,0,0,1,801.9,485.29Zm-13.12-4.09a6.28,6.28,0,0,0,10.76-4.55,6,6,0,0,0-1.79-4.52,6.51,6.51,0,0,0-9,0,6,6,0,0,0-1.79,4.52A6.13,6.13,0,0,0,788.78,481.2Z" transform="translate(-611.64 -307)"/><path class="cls-2" d="M814.16,465v17.51h8v5.75h-14V465Z" transform="translate(-611.64 -307)"/><path class="cls-2" d="M846.15,465v5.75h-8.34v3.79H846v5.75h-8.17v8h-5.94V465Z" transform="translate(-611.64 -307)"/><path class="cls-2" d="M869.17,485.29a12.48,12.48,0,0,1-17.31,0,11.74,11.74,0,0,1-3.52-8.64,11.61,11.61,0,0,1,3.52-8.6,12.4,12.4,0,0,1,17.31,0,11.56,11.56,0,0,1,3.55,8.6A11.76,11.76,0,0,1,869.17,485.29Zm-13.12-4.09a6.28,6.28,0,0,0,10.76-4.55,6,6,0,0,0-1.79-4.52,6.51,6.51,0,0,0-9,0,6,6,0,0,0-1.8,4.52A6.14,6.14,0,0,0,856.05,481.2Z" transform="translate(-611.64 -307)"/><path class="cls-2" d="M894,488.28h-6.37l-4.06-7.51h-2.12v7.51h-5.95V465h9.3a8.27,8.27,0,0,1,6,2.3,7.45,7.45,0,0,1,2.42,5.74,7.22,7.22,0,0,1-1.06,3.82,7.67,7.67,0,0,1-2.89,2.79Zm-9.26-17.77h-3.29v5.21h3.29a2.27,2.27,0,0,0,1.79-.7,2.9,2.9,0,0,0,0-3.78A2.36,2.36,0,0,0,884.72,470.51Z" transform="translate(-611.64 -307)"/><path class="cls-2" d="M913.88,465h5.92v23.26h-5.92V475.75l-5.64,9.34h-.6l-5.62-9.3v12.49h-5.94V465H902l5.92,9.94Z" transform="translate(-611.64 -307)"/></svg>