<svg id="圖層_1" data-name="圖層 1" xmlns="http://www.w3.org/2000/svg" viewBox="0 0 278 168.16"><defs><style>.cls-1{opacity:0;}.cls-2{fill:#0971f1;}</style></defs><rect class="cls-1" width="278" height="168.16"/><path class="cls-2" d="M720.45,337.57h62.3a1.46,1.46,0,0,1,.79.23l34.22,22.82a1.42,1.42,0,0,1-.79,2.61H744.69v72.28a1.43,1.43,0,0,1-2.62.79l-22.81-34.21a1.5,1.5,0,0,1-.24-.8V339A1.42,1.42,0,0,1,720.45,337.57Z" transform="translate(-629.7 -327.87)"/><path class="cls-2" d="M772.57,390.37,804.93,412a1.43,1.43,0,0,1-.79,2.61H771.78a1.43,1.43,0,0,1-1.43-1.43V391.56A1.43,1.43,0,0,1,772.57,390.37Z" transform="translate(-629.7 -327.87)"/><path class="cls-2" d="M657.4,485.92h-5.47l-3.48-6.45h-1.83v6.45h-5.1V466h8a7.06,7.06,0,0,1,5.11,2,6.4,6.4,0,0,1,2.08,4.93,6.31,6.31,0,0,1-.91,3.28,6.65,6.65,0,0,1-2.49,2.39Zm-7.95-15.26h-2.83v4.48h2.83a2,2,0,0,0,1.54-.6,2.53,2.53,0,0,0,0-3.25A2,2,0,0,0,649.45,470.66Z" transform="translate(-629.7 -327.87)"/><path class="cls-2" d="M664.3,478.19v2.94H672v4.79H659.2V466h12.69v4.76H664.3v2.77h6.87v4.7Z" transform="translate(-629.7 -327.87)"/><path class="cls-2" d="M692.42,485.92h-5.51l-.85-2.88h-6.65l-.85,2.88H673l6.58-20h6.22Zm-9.7-14.06-2,6.79h4Z" transform="translate(-629.7 -327.87)"/><path class="cls-2" d="M702.8,486.35a10.41,10.41,0,1,1,0-20.82,10.24,10.24,0,0,1,5,1.28,9.69,9.69,0,0,1,3.62,3.45L707,472.8a4.15,4.15,0,0,0-1.7-1.67,5.16,5.16,0,0,0-2.52-.61,5.24,5.24,0,0,0-3.88,1.51,6,6,0,0,0,0,7.84,5.25,5.25,0,0,0,3.88,1.49,5.17,5.17,0,0,0,2.52-.62,4.07,4.07,0,0,0,1.7-1.69l4.42,2.56a9.48,9.48,0,0,1-3.61,3.47A10.3,10.3,0,0,1,702.8,486.35Z" transform="translate(-629.7 -327.87)"/><path class="cls-2" d="M712.09,466h15v4.93h-4.93v15H717v-15h-4.94Z" transform="translate(-629.7 -327.87)"/><path class="cls-2" d="M745,486.35a10.41,10.41,0,1,1,0-20.82,10.24,10.24,0,0,1,5,1.28,9.69,9.69,0,0,1,3.62,3.45l-4.42,2.54a4.15,4.15,0,0,0-1.7-1.67,5.16,5.16,0,0,0-2.52-.61,5.24,5.24,0,0,0-3.88,1.51,6,6,0,0,0,0,7.84,5.25,5.25,0,0,0,3.88,1.49,5.17,5.17,0,0,0,2.52-.62,4.07,4.07,0,0,0,1.7-1.69l4.42,2.56a9.48,9.48,0,0,1-3.61,3.47A10.3,10.3,0,0,1,745,486.35Z" transform="translate(-629.7 -327.87)"/><path class="cls-2" d="M772.15,483.35a10.7,10.7,0,0,1-14.86,0,10.49,10.49,0,0,1,14.86-14.8,10,10,0,0,1,3.05,7.39A10.09,10.09,0,0,1,772.15,483.35Zm-11.27-3.51a5.64,5.64,0,0,0,7.7,0,5.25,5.25,0,0,0,1.54-3.9,5.13,5.13,0,0,0-1.54-3.88,5.39,5.39,0,0,0-9.24,3.88A5.29,5.29,0,0,0,760.88,479.84Z" transform="translate(-629.7 -327.87)"/><path class="cls-2" d="M794.67,483.35a10.69,10.69,0,0,1-14.85,0,10.48,10.48,0,0,1,14.85-14.8,9.94,9.94,0,0,1,3.06,7.39A10.06,10.06,0,0,1,794.67,483.35Zm-11.26-3.51a5.64,5.64,0,0,0,7.7,0,5.25,5.25,0,0,0,1.54-3.9,5.13,5.13,0,0,0-1.54-3.88,5.58,5.58,0,0,0-7.7,0,5.13,5.13,0,0,0-1.54,3.88A5.25,5.25,0,0,0,783.41,479.84Z" transform="translate(-629.7 -327.87)"/><path class="cls-2" d="M805.2,466v15h6.87v4.94h-12V466Z" transform="translate(-629.7 -327.87)"/><path class="cls-2" d="M832.66,466v4.93H825.5v3.25h7v4.93h-7v6.85h-5.1V466Z" transform="translate(-629.7 -327.87)"/><path class="cls-2" d="M852.42,483.35a10.7,10.7,0,0,1-14.86,0,10.49,10.49,0,0,1,14.86-14.8,10,10,0,0,1,3.05,7.39A10.09,10.09,0,0,1,852.42,483.35Zm-11.27-3.51a5.64,5.64,0,0,0,7.7,0,5.25,5.25,0,0,0,1.54-3.9,5.13,5.13,0,0,0-1.54-3.88,5.39,5.39,0,0,0-9.24,3.88A5.29,5.29,0,0,0,841.15,479.84Z" transform="translate(-629.7 -327.87)"/><path class="cls-2" d="M873.72,485.92h-5.48l-3.47-6.45h-1.83v6.45h-5.1V466h8a7,7,0,0,1,5.1,2,6.37,6.37,0,0,1,2.09,4.93,6.23,6.23,0,0,1-.92,3.28,6.55,6.55,0,0,1-2.48,2.39Zm-8-15.26h-2.82v4.48h2.82a1.94,1.94,0,0,0,1.54-.6,2.5,2.5,0,0,0,0-3.25A2,2,0,0,0,865.76,470.66Z" transform="translate(-629.7 -327.87)"/><path class="cls-2" d="M890.8,466h5.08v20H890.8V475.17l-4.85,8h-.51l-4.82-8v10.72h-5.1V466h5.1l5.08,8.52Z" transform="translate(-629.7 -327.87)"/></svg>