<svg id="圖層_1" data-name="圖層 1" xmlns="http://www.w3.org/2000/svg" viewBox="0 0 263.68 156.97"><defs><style>.cls-1{fill:#fcff6a;opacity:0;}.cls-2{fill:#2b54fe;}</style></defs><rect class="cls-1" width="263.68" height="156.97"/><path class="cls-2" d="M873.08,282.9h62.31a1.46,1.46,0,0,1,.79.23L970.4,306a1.43,1.43,0,0,1-.79,2.61H897.32v72.28a1.42,1.42,0,0,1-2.61.79L871.9,347.42a1.42,1.42,0,0,1-.24-.8v-62.3A1.42,1.42,0,0,1,873.08,282.9Z" transform="translate(-789.49 -278.8)"/><path class="cls-2" d="M925.2,335.7l32.37,21.58a1.43,1.43,0,0,1-.79,2.61H924.41a1.43,1.43,0,0,1-1.42-1.43V336.89A1.42,1.42,0,0,1,925.2,335.7Z" transform="translate(-789.49 -278.8)"/><path class="cls-2" d="M810,431.25h-5.48l-3.48-6.45h-1.82v6.45h-5.11v-20h8a7.06,7.06,0,0,1,5.1,2,6.37,6.37,0,0,1,2.09,4.93,6.23,6.23,0,0,1-.92,3.28,6.7,6.7,0,0,1-2.48,2.39Zm-8-15.26h-2.82v4.48h2.82a1.94,1.94,0,0,0,1.54-.6,2.5,2.5,0,0,0,0-3.25A2,2,0,0,0,802.08,416Z" transform="translate(-789.49 -278.8)"/><path class="cls-2" d="M816.94,423.52v2.94h7.73v4.79H811.83v-20h12.69v4.76h-7.58v2.77h6.87v4.7Z" transform="translate(-789.49 -278.8)"/><path class="cls-2" d="M845.05,431.25h-5.5l-.86-2.88h-6.64l-.85,2.88h-5.54l6.59-20h6.22Zm-9.69-14.06-2,6.79h4Z" transform="translate(-789.49 -278.8)"/><path class="cls-2" d="M855.44,431.68a10.41,10.41,0,1,1,5-19.54,9.61,9.61,0,0,1,3.62,3.45l-4.42,2.54a4.12,4.12,0,0,0-1.69-1.67,5.16,5.16,0,0,0-2.52-.61,5.23,5.23,0,0,0-3.88,1.51,6,6,0,0,0,0,7.84,5.23,5.23,0,0,0,3.88,1.49,5.17,5.17,0,0,0,2.52-.62,4,4,0,0,0,1.69-1.69l4.42,2.56a9.38,9.38,0,0,1-3.6,3.47A10.3,10.3,0,0,1,855.44,431.68Z" transform="translate(-789.49 -278.8)"/><path class="cls-2" d="M864.73,411.29h15v4.93h-4.93v15h-5.11v-15h-4.93Z" transform="translate(-789.49 -278.8)"/><path class="cls-2" d="M897.67,431.68a10.41,10.41,0,1,1,0-20.82,10.27,10.27,0,0,1,5,1.28,9.69,9.69,0,0,1,3.62,3.45l-4.42,2.54a4.15,4.15,0,0,0-1.7-1.67,5.16,5.16,0,0,0-2.52-.61,5.24,5.24,0,0,0-3.88,1.51,6,6,0,0,0,0,7.84,5.25,5.25,0,0,0,3.88,1.49,5.17,5.17,0,0,0,2.52-.62,4.07,4.07,0,0,0,1.7-1.69l4.42,2.56a9.48,9.48,0,0,1-3.61,3.47A10.3,10.3,0,0,1,897.67,431.68Z" transform="translate(-789.49 -278.8)"/><path class="cls-2" d="M924.78,428.68a10.69,10.69,0,0,1-14.85,0,10.48,10.48,0,0,1,14.85-14.8,9.93,9.93,0,0,1,3.05,7.39A10.05,10.05,0,0,1,924.78,428.68Zm-11.26-3.51a5.64,5.64,0,0,0,7.7,0,5.25,5.25,0,0,0,1.54-3.9,5.13,5.13,0,0,0-1.54-3.88,5.58,5.58,0,0,0-7.7,0,5.13,5.13,0,0,0-1.54,3.88A5.25,5.25,0,0,0,913.52,425.17Z" transform="translate(-789.49 -278.8)"/><path class="cls-2" d="M947.31,428.68a10.45,10.45,0,0,1-17.88-7.41,10,10,0,0,1,3-7.39,10.65,10.65,0,0,1,14.86,0,9.93,9.93,0,0,1,3.05,7.39A10.05,10.05,0,0,1,947.31,428.68Zm-11.26-3.51a5.39,5.39,0,0,0,9.24-3.9,5.39,5.39,0,1,0-10.78,0A5.25,5.25,0,0,0,936.05,425.17Z" transform="translate(-789.49 -278.8)"/><path class="cls-2" d="M957.83,411.29v15h6.88v4.94h-12v-20Z" transform="translate(-789.49 -278.8)"/><path class="cls-2" d="M985.29,411.29v4.93h-7.15v3.25h7v4.93h-7v6.85H973v-20Z" transform="translate(-789.49 -278.8)"/><path class="cls-2" d="M1005.05,428.68a10.69,10.69,0,0,1-14.85,0,10.48,10.48,0,0,1,14.85-14.8,9.93,9.93,0,0,1,3.05,7.39A10.05,10.05,0,0,1,1005.05,428.68Zm-11.26-3.51a5.64,5.64,0,0,0,7.7,0,5.25,5.25,0,0,0,1.54-3.9,5.13,5.13,0,0,0-1.54-3.88,5.58,5.58,0,0,0-7.7,0,5.13,5.13,0,0,0-1.54,3.88A5.25,5.25,0,0,0,993.79,425.17Z" transform="translate(-789.49 -278.8)"/><path class="cls-2" d="M1026.35,431.25h-5.47l-3.48-6.45h-1.82v6.45h-5.11v-20h8a7.06,7.06,0,0,1,5.1,2,6.36,6.36,0,0,1,2.08,4.93,6.22,6.22,0,0,1-.91,3.28,6.77,6.77,0,0,1-2.48,2.39ZM1018.4,416h-2.82v4.48h2.82a1.94,1.94,0,0,0,1.54-.6,2.5,2.5,0,0,0,0-3.25A2,2,0,0,0,1018.4,416Z" transform="translate(-789.49 -278.8)"/><path class="cls-2" d="M1043.44,411.29h5.07v20h-5.07V420.5l-4.85,8h-.51l-4.82-8v10.72h-5.11v-20h5.11l5.07,8.52Z" transform="translate(-789.49 -278.8)"/></svg>