<svg id="圖層_1" data-name="圖層 1" xmlns="http://www.w3.org/2000/svg" viewBox="0 0 512 512"><defs><style>.cls-1{fill:#0971f1;}</style></defs><path class="cls-1" d="M641.55,369h321a7.28,7.28,0,0,1,4.07,1.24l176.3,117.53a7.35,7.35,0,0,1-4.07,13.46H766.43V873.59A7.35,7.35,0,0,1,753,877.67L635.44,701.37a7.4,7.4,0,0,1-1.23-4.08v-321A7.35,7.35,0,0,1,641.55,369Z" transform="translate(-634.21 -368.95)"/><path class="cls-1" d="M910.08,641l166.73,111.15a7.35,7.35,0,0,1-4.07,13.46H906a7.35,7.35,0,0,1-7.34-7.35V647.13A7.34,7.34,0,0,1,910.08,641Z" transform="translate(-634.21 -368.95)"/></svg>