<svg id="圖層_1" data-name="圖層 1" xmlns="http://www.w3.org/2000/svg" viewBox="0 0 300 195.73"><defs><style>.cls-1{fill:none;}.cls-2,.cls-3{fill:#2b54fe;}.cls-3{font-size:28.52px;font-family:Gilroy-Black, Gilroy;font-weight:800;}.cls-4{letter-spacing:0.01em;}.cls-5{letter-spacing:-0.02em;}.cls-6{letter-spacing:-0.01em;}.cls-7{letter-spacing:-0.03em;}.cls-8{letter-spacing:0em;}</style></defs><rect class="cls-1" width="300" height="195.73"/><path class="cls-2" d="M1009.83,496.66h62.3a1.47,1.47,0,0,1,.79.24l34.22,22.82a1.43,1.43,0,0,1-.79,2.61h-72.28v72.28a1.43,1.43,0,0,1-2.62.79l-22.81-34.22a1.39,1.39,0,0,1-.24-.79v-62.3A1.43,1.43,0,0,1,1009.83,496.66Z" transform="translate(-908.09 -473.89)"/><path class="cls-2" d="M1062,549.47,1094.31,571a1.43,1.43,0,0,1-.79,2.62h-32.36a1.43,1.43,0,0,1-1.43-1.43V550.66A1.43,1.43,0,0,1,1062,549.47Z" transform="translate(-908.09 -473.89)"/><text class="cls-3" transform="translate(21.24 173.61)">R<tspan class="cls-4" x="17.68" y="0">E</tspan><tspan class="cls-5" x="33.22" y="0">A</tspan><tspan class="cls-6" x="51.64" y="0">C</tspan><tspan x="71.86" y="0">T </tspan><tspan class="cls-7" x="93.87" y="0">C</tspan><tspan x="113.52" y="0">OOL </tspan><tspan class="cls-8" x="178.88" y="0">F</tspan><tspan x="193.79" y="0">ORM</tspan></text></svg>