<svg id="圖層_1" data-name="圖層 1" xmlns="http://www.w3.org/2000/svg" viewBox="0 0 150 150"><defs><style>.cls-1{fill:#2b54fe;}</style></defs><path class="cls-1" d="M498.74,303.7h94a2.09,2.09,0,0,1,1.19.37l51.66,34.43a2.15,2.15,0,0,1-1.2,3.94H535.33V451.55a2.16,2.16,0,0,1-4,1.19L497,401.09a2.11,2.11,0,0,1-.36-1.19v-94A2.16,2.16,0,0,1,498.74,303.7Z" transform="translate(-496.59 -303.7)"/><path class="cls-1" d="M577.41,383.41,626.26,416a2.15,2.15,0,0,1-1.2,3.94H576.22a2.16,2.16,0,0,1-2.16-2.15V385.2A2.16,2.16,0,0,1,577.41,383.41Z" transform="translate(-496.59 -303.7)"/></svg>