<svg xmlns="http://www.w3.org/2000/svg" xmlns:xlink="http://www.w3.org/1999/xlink" viewBox="0 0 500 500"><g id="freepik--Stars--inject-68"><path d="M362.12,87.51l.52,1.24a8.76,8.76,0,0,0,4.82,4.78l1.35.55-1.29.53a8.85,8.85,0,0,0-4.87,4.87l-.36.91-.55-1.14a8.82,8.82,0,0,0-4.93-4.46l-1.17-.43,1.54-.75a8.86,8.86,0,0,0,4.29-4.55Z" style="fill:#455a64"></path><path d="M384.12,360l.26.62a4.38,4.38,0,0,0,2.41,2.39l.68.28-.65.26a4.41,4.41,0,0,0-2.43,2.44l-.18.45-.28-.57a4.42,4.42,0,0,0-2.46-2.23l-.59-.22.77-.37a4.45,4.45,0,0,0,2.15-2.27Z" style="fill:#455a64"></path><path d="M92.23,361.71l.26.62a4.4,4.4,0,0,0,2.42,2.39l.67.28-.65.26a4.44,4.44,0,0,0-2.43,2.44l-.18.45-.28-.57a4.35,4.35,0,0,0-2.46-2.23l-.59-.22.77-.37a4.41,4.41,0,0,0,2.15-2.27Z" style="fill:#455a64"></path><path d="M70.63,196.17l.52,1.24A8.76,8.76,0,0,0,76,202.19l1.36.55-1.3.53a8.8,8.8,0,0,0-4.86,4.87l-.37.91-.55-1.14a8.77,8.77,0,0,0-4.92-4.46L64.15,203l1.54-.75A8.78,8.78,0,0,0,70,197.72Z" style="fill:#455a64"></path><path d="M413.64,338.07l.51,1.24a8.84,8.84,0,0,0,4.83,4.78l1.35.55-1.3.53a8.8,8.8,0,0,0-4.86,4.87l-.37.91-.54-1.14a8.83,8.83,0,0,0-4.93-4.47l-1.18-.43,1.54-.74a8.84,8.84,0,0,0,4.3-4.55Z" style="fill:#455a64"></path></g><g id="freepik--speed-lines--inject-68"><path d="M192.76,186.75c.08.12-17.9,12.32-40.15,27.24s-40.35,26.93-40.43,26.81,17.89-12.31,40.14-27.24S192.68,186.63,192.76,186.75Z" style="fill:#263238"></path><path d="M198.74,412c.08.12-17.9,12.32-40.15,27.24s-40.36,26.93-40.44,26.81,17.9-12.31,40.15-27.24S198.66,411.92,198.74,412Z" style="fill:#263238"></path><path d="M217.28,148.2c.08.11-10.34,7.94-23.27,17.48s-23.49,17.17-23.58,17.06,10.33-7.94,23.27-17.48S217.19,148.08,217.28,148.2Z" style="fill:#263238"></path><path d="M240.7,401.76c.08.11-10.34,7.94-23.27,17.48s-23.49,17.18-23.58,17.06,10.33-7.94,23.27-17.48S240.61,401.64,240.7,401.76Z" style="fill:#263238"></path><path d="M410.89,199.92c.09.12-10.33,7.94-23.26,17.48s-23.5,17.18-23.58,17.06,10.33-7.94,23.27-17.48S410.81,199.8,410.89,199.92Z" style="fill:#263238"></path><path d="M436.41,154.33c.09.12-10.33,7.95-23.27,17.48S389.65,189,389.57,188.88s10.33-7.94,23.27-17.48S436.33,154.22,436.41,154.33Z" style="fill:#263238"></path></g><g id="freepik--Character--inject-68"><path d="M306.93,201.73s6.61,53.48-23.77,91.49-110.5,80.58-118.22,81.7c0,0,23.24-19.18-4.91-28.1s-40-20.34-39.86-31.17,27.16-37.22,14.33-49.83-32.27-16.39-41.35-31.06c0,0,29.6,14.11,52.28,11.86s106.41-24.3,123.62-53.33" style="fill:#2B54FE"></path><path d="M166,312.57s.15-.11.47-.26l1.38-.66,5.1-2.41c4.29-2.06,10.16-5,16.48-8.58s11.88-7.08,15.86-9.69l4.69-3.13,1.28-.84a2,2,0,0,1,.47-.27s-.13.14-.41.36l-1.22.92c-1.07.8-2.64,1.92-4.61,3.26-3.93,2.7-9.47,6.26-15.81,9.84s-12.24,6.49-16.58,8.46c-2.16,1-3.93,1.76-5.17,2.26l-1.42.57A1.79,1.79,0,0,1,166,312.57Z" style="fill:#263238"></path><path d="M129,305.45l.23,0,.69-.06,2.64-.17c1.15-.05,2.55-.14,4.18-.3s3.48-.27,5.51-.55l3.2-.39c1.11-.14,2.26-.35,3.45-.52,2.4-.34,4.92-.85,7.59-1.36,5.31-1.11,11.1-2.56,17.08-4.44s11.53-4.08,16.51-6.23c2.47-1.13,4.84-2.17,7-3.27,1.08-.55,2.14-1,3.12-1.57L203,285c1.82-.94,3.41-1.92,4.82-2.73s2.62-1.54,3.59-2.16l2.25-1.39.59-.35c.14-.07.21-.11.22-.1l-.19.15-.56.39-2.2,1.47c-1,.64-2.14,1.41-3.55,2.24s-3,1.83-4.79,2.8l-2.83,1.57c-1,.54-2,1-3.12,1.59-2.14,1.13-4.5,2.19-7,3.33a175.58,175.58,0,0,1-16.55,6.29,173.89,173.89,0,0,1-17.15,4.41c-2.67.5-5.21,1-7.61,1.31-1.2.17-2.35.37-3.47.5l-3.21.35c-2,.26-3.9.35-5.53.48s-3,.19-4.19.22l-2.65.07h-.68A.64.64,0,0,1,129,305.45Z" style="fill:#263238"></path><path d="M133.81,256.56a4.15,4.15,0,0,1,.77,0l2.23.1c1,.05,2.14.11,3.51.14s2.94.11,4.66.11c3.45.05,7.57,0,12.12-.2s9.57-.61,14.8-1.23,10.18-1.46,14.66-2.32,8.48-1.81,11.82-2.69c1.68-.4,3.18-.85,4.5-1.21s2.46-.69,3.38-1l2.14-.62a3.47,3.47,0,0,1,.76-.18,6.93,6.93,0,0,1-.73.28l-2.11.71c-.91.31-2,.68-3.36,1.06s-2.81.86-4.48,1.29c-3.34.92-7.35,1.88-11.83,2.8S177.2,255.35,172,256s-10.26,1-14.83,1.19-8.7.19-12.15.08c-1.73,0-3.3-.12-4.67-.18s-2.55-.15-3.51-.23l-2.22-.19A5.85,5.85,0,0,1,133.81,256.56Z" style="fill:#263238"></path><g style="opacity:0.4"><path d="M256,205.94c-22,29.62-57.42,53.34-94.29,53.91-6.15.09-12.87,0-17.69,3.79-3.45,2.75-.8,12.43-4.61,20.46-4.79,10.12-4.79,11-11.79,20.23-3.4,4.46-6.24,10.16-4.77,15.56,1.74,6.4,7.9,10.4,13.59,13.8l32.16,19.22c4.17,2.49,8.54,5,13.39,5.43,6.17.47,12-2.66,17.29-5.87a268.21,268.21,0,0,0,109-128.83"></path></g><path d="M376.94,144.22s1.63-9.11,2.4-9.93l15.14,3.24-5.84,11.65Z" style="fill:#ffbe9d"></path><path d="M394.23,138.5s0,.13-.08.29c-.53,1.35-3.53,6.9-4.34,6.78s-2.58-1.56-2.33-2.37,4-6.86,4-6.86.66-.92,2.45-.29C395,136.44,394.23,138.5,394.23,138.5Z" style="fill:#ffbe9d"></path><path d="M391.93,134.74a.81.81,0,0,1-.08.29c-.53,1.35-3.53,6.9-4.34,6.78s-2.59-1.56-2.33-2.37,4-6.86,4-6.86.65-.92,2.44-.29C392.71,132.68,391.93,134.74,391.93,134.74Z" style="fill:#ffbe9d"></path><path d="M389.17,132s0,.12-.08.29c-.53,1.35-3.53,6.89-4.34,6.78s-2.58-1.57-2.33-2.38,4-6.86,4-6.86.65-.92,2.44-.29C390,130,389.17,132,389.17,132Z" style="fill:#ffbe9d"></path><path d="M386.4,129.38s0,.13-.08.29c-.53,1.35-3.53,6.9-4.34,6.78s-2.58-1.57-2.33-2.37,4-6.86,4-6.86.65-.92,2.44-.3C387.19,127.31,386.4,129.38,386.4,129.38Z" style="fill:#ffbe9d"></path><path d="M388.31,141.55A12.16,12.16,0,0,0,390,139a11.78,11.78,0,0,0,1.32-2.74,12.28,12.28,0,0,0-1.68,2.59A11.83,11.83,0,0,0,388.31,141.55Z" style="fill:#eb996e"></path><path d="M385,139.85a23.17,23.17,0,0,0,2.33-3.7,23.46,23.46,0,0,0,2-3.9A24,24,0,0,0,387,136,25.5,25.5,0,0,0,385,139.85Z" style="fill:#eb996e"></path><g style="opacity:0.78"><path d="M381.8,137.83a25.12,25.12,0,0,0,2.33-3.71,25.5,25.5,0,0,0,2-3.9,23.58,23.58,0,0,0-2.33,3.71A22.63,22.63,0,0,0,381.8,137.83Z" style="fill:#eb996e"></path></g><path d="M378.62,145.68l-.82-5.15a8.81,8.81,0,0,1,1.47-6.42l1-1.43L391,139s-3,3.42-5.64,1.11l1.74,4.51Z" style="fill:#ffbe9d"></path><path d="M386,145a15.53,15.53,0,0,0,0-1.58,5.62,5.62,0,0,0-1.75-3.63l-.86-.8,1.09.44,2.8,1.12h-.05a3.4,3.4,0,0,0,3.45-1.17,1.87,1.87,0,0,0,.15-.26l.12.33c-3.1-1.66-5.88-3.19-7.82-4.42-1-.61-1.74-1.12-2.27-1.49a3.79,3.79,0,0,1-.77-.62,35.36,35.36,0,0,1,3.22,1.8c2,1.14,4.78,2.62,7.89,4.28l.21.11-.1.22a2.77,2.77,0,0,1-.2.34,3.36,3.36,0,0,1-1.86,1.3,4.84,4.84,0,0,1-2.1.07h-.05l-2.79-1.18.23-.36a5.65,5.65,0,0,1,1.71,3.93,4.56,4.56,0,0,1-.12,1.2C386.11,144.82,386.05,145,386,145Z" style="fill:#eb996e"></path><path d="M389.16,140.58c.1,0-.17.57.08,1.37a1,1,0,0,0,.94.73,1.92,1.92,0,0,0,1.36-.92c.79-1.1,1.57-2.07,2-2.8s.75-1.23.82-1.2a3.07,3.07,0,0,1-.5,1.38,27.51,27.51,0,0,1-1.94,2.93,2.3,2.3,0,0,1-1.77,1.09,1.27,1.27,0,0,1-.91-.38,1.5,1.5,0,0,1-.39-.73,2,2,0,0,1,.06-1.12C389.05,140.68,389.13,140.57,389.16,140.58Z" style="fill:#eb996e"></path><path d="M288.93,162.43a1.8,1.8,0,0,1-2.73,1.87c-1.12-.71-1.11-2.36-.75-3.64s.95-2.63.52-3.89a9,9,0,0,0-1.81-2.43,5.74,5.74,0,0,1-1.1-5,4.8,4.8,0,0,1,3.68-3.44c1.78-.32,3.86.43,5.28-.7,1-.82,1.23-2.3,2.07-3.32,1.29-1.57,3.69-1.6,5.67-1.13s4.72,3.79,6.74,3.49c1.68-.24,2.39-3.72,4-4.27a8.91,8.91,0,0,1,10.34,13.33,5.64,5.64,0,0,1-3,2.45" style="fill:#2B54FE"></path><path d="M285.64,196.91l19.2,1.42c.46-2.2,1.63-10.78,1.63-10.78s8.07,0,9.39-7.88,2.76-26.2,2.76-26.2h0a27.76,27.76,0,0,0-28.08-.8l-1.31.72Z" style="fill:#ffbe9d"></path><path d="M313.45,166.08a1.16,1.16,0,1,1,1.63.17A1.16,1.16,0,0,1,313.45,166.08Z" style="fill:#263238"></path><path d="M316.9,165.24c-.15.12-.83-.59-1.92-.77s-2,.27-2.06.11.12-.3.5-.51a2.73,2.73,0,0,1,3.17.53C316.89,164.93,317,165.19,316.9,165.24Z" style="fill:#263238"></path><path d="M303.31,163.64a1.16,1.16,0,1,1-1.63.13A1.15,1.15,0,0,1,303.31,163.64Z" style="fill:#263238"></path><path d="M305,164.19c-.14.13-.88-.52-2-.59s-1.93.45-2,.3.08-.31.45-.55a2.65,2.65,0,0,1,1.64-.41,2.68,2.68,0,0,1,1.56.64C305,163.87,305.08,164.13,305,164.19Z" style="fill:#263238"></path><path d="M307.92,174a5.12,5.12,0,0,1,1.81-.1c.29,0,.52,0,.57-.17a1.66,1.66,0,0,0-.08-.84l-.52-2.34c-.7-3.33-1.13-6.06-1-6.09s.87,2.63,1.57,6c.17.81.32,1.58.47,2.35a1.83,1.83,0,0,1,0,1.2.75.75,0,0,1-.56.38,1.63,1.63,0,0,1-.5,0A5.11,5.11,0,0,1,307.92,174Z" style="fill:#263238"></path><path d="M304.2,174.66a20.92,20.92,0,0,0,5.09,2.38,3,3,0,0,1-3.73.64C303.33,176.45,304.2,174.66,304.2,174.66Z" style="fill:#fff"></path><path d="M306.5,187.43a18.5,18.5,0,0,1-9.83-4.51s1.55,6.05,9.53,6.56Z" style="fill:#eb996e"></path><path d="M318.47,155.48s-5,2-11.07-1.69c-4-2.39-8.71-3.79-9.84-3s-1.69,5-5.89,5.91c0,0-.37,8.15-3.58,7.6s-.19-13-.19-13l8.24-3.24,8.78-.94,8.06,1.8,6.17,2.23Z" style="fill:#2B54FE"></path><path d="M288.94,161.71c-.13-.08-5.17-2.44-5.84,3s4.92,5,4.95,4.81S288.94,161.71,288.94,161.71Z" style="fill:#ffbe9d"></path><path d="M286.64,167.24s-.1.06-.27.11a1,1,0,0,1-.71-.07,2.38,2.38,0,0,1-.82-2.23,3.27,3.27,0,0,1,.43-1.32,1.11,1.11,0,0,1,.8-.64.48.48,0,0,1,.52.33c.06.16,0,.27,0,.28s.13-.08.11-.31a.62.62,0,0,0-.17-.36.72.72,0,0,0-.51-.2,1.32,1.32,0,0,0-1.09.72,3.26,3.26,0,0,0-.51,1.47,2.47,2.47,0,0,0,1.09,2.5,1,1,0,0,0,.88,0C286.62,167.37,286.66,167.26,286.64,167.24Z" style="fill:#eb996e"></path><path d="M287.87,144.43c0,.17.82.22,1.68.65s1.4,1,1.54.94-.24-1-1.27-1.48S287.83,144.27,287.87,144.43Z" style="fill:#2B54FE"></path><path d="M291.46,141.5a3.76,3.76,0,0,0-.55,2.54c0,1.51.83,2.52,1,2.42s-.32-1.1-.36-2.45S291.64,141.54,291.46,141.5Z" style="fill:#2B54FE"></path><path d="M311.89,162.65c.12.32,1.19.21,2.44.36s2.28.47,2.47.18-.76-1.21-2.34-1.38S311.75,162.36,311.89,162.65Z" style="fill:#263238"></path><path d="M299.94,159.77c.12.32,1.2.2,2.45.36s2.28.46,2.46.18-.76-1.22-2.33-1.38S299.81,159.47,299.94,159.77Z" style="fill:#263238"></path><path d="M265.82,277.68,239.59,261h0c-10.45,17.11-3.84,33.6-3.68,54.63l-.18,14.44-70.2,7.39.84,19.63,84.09-1.22a17.55,17.55,0,0,0,16.62-17.62c-.12-23.78,1.38-58.33,1.75-56.64" style="fill:#455a64"></path><path d="M286.75,186.51s-6.89-5-15.84.63-32.48,49-32.48,49L220.29,251.5l46.76,33s37-46.32,40-53.42l2.49-33.3Z" style="fill:#455a64"></path><polygon points="308.98 197.76 344.01 176.67 376.55 142.92 388.64 149.18 354.6 198.52 306.5 231.06 308.98 197.76" style="fill:#455a64"></polygon><path d="M161.43,336l47.84-3.6L209,348.15l17.3,10.36-58-2.25s-4.39,16.53-5.49,14S161.43,336,161.43,336Z" style="fill:#263238"></path><path d="M217.74,251.11s16.92,5.67,23.1,15.44a12.68,12.68,0,0,1,1.2,10.77l-4.45,10.75s20.09-11.53,31.09-3.82l4.48-7.48-47.58-32.08S220,247.16,217.74,251.11Z" style="fill:#263238"></path><path d="M218.19,249.93,175.82,328.1l-55.2,41.65,9,16.91,52.09-29.61c9.32-4.24,18.48-11,24.18-19.52l12.39-18.47,22.24-36.63c5.43-8.44,2.76-16.38-5.47-22.11Z" style="fill:#455a64"></path><path d="M110.24,375.65l37.47-28.59,8.12,10.44,22.95,2L127.65,388s6.17,15.95,3.78,14.53S110.24,375.65,110.24,375.65Z" style="fill:#263238"></path><path d="M302.88,142.6c1.37.71,4.25.81,5.5-.4a3.25,3.25,0,0,0,.42-3.35c-.35-.64-1.08-.93-1.06-1.67,0-.55.77-1,1.23-1.26a4,4,0,0,1,1.56-.52,11.83,11.83,0,0,1,8.22,1.58,10.15,10.15,0,0,1,4.59,6.92c.42,2.82-.15,7.08-2.26,9s-5.74,1.38-8.4.36" style="fill:#2B54FE"></path><path d="M312.46,135.4a6.23,6.23,0,0,0-2.57-.21,3.64,3.64,0,0,0-2.24,1.21c-.42.5-.66,1.13-1.11,1.6a2,2,0,0,1-1.6.68,1.37,1.37,0,0,1-1.24-1.12,1.05,1.05,0,0,1,1-1.18,1.13,1.13,0,0,0,.26,0c.09,0,.16-.13.12-.21a.22.22,0,0,0-.19-.08,2.17,2.17,0,0,0-2.05,1.35,2.44,2.44,0,0,0,.46,2.45,2.8,2.8,0,0,0,2.35.91,3.33,3.33,0,0,0,2.23-1.23,11.73,11.73,0,0,1,1.2-1.58,2.37,2.37,0,0,1,1.94-.48,2.76,2.76,0,0,1,1.7,1.08c.18.24.37.53.66.54" style="fill:#2B54FE"></path><polygon points="364.23 155.69 367.75 172.8 375.55 168.16 388.64 149.18 376.55 142.92 364.23 155.69" style="fill:#263238"></polygon><polygon points="302.18 224.29 279.14 234.48 282.16 211 302.18 224.29" style="fill:#2B54FE"></polygon><path d="M304.08,136.82a2,2,0,0,0-.33.18,1,1,0,0,0-.27,1,1.21,1.21,0,0,0,1.27.87,4,4,0,0,0,2.17-.76c.74-.47,1.48-1.12,2.34-1.76a5.3,5.3,0,0,1,3.24-1.24,5,5,0,0,1,3.41,1.74,8.92,8.92,0,0,1,2,3.59,10.38,10.38,0,0,1-.78,7.71,10.11,10.11,0,0,1-8.9,5.14,6.9,6.9,0,0,1-1.17-.12c-.26,0-.4-.08-.39-.1s.56,0,1.55,0a10.26,10.26,0,0,0,4.06-1,9.65,9.65,0,0,0,4.42-4.17,10,10,0,0,0,.71-7.34,8.36,8.36,0,0,0-1.84-3.38,4.51,4.51,0,0,0-3-1.61,4.91,4.91,0,0,0-3,1.11c-.84.61-1.61,1.26-2.4,1.73a4.26,4.26,0,0,1-2.38.73,1.42,1.42,0,0,1-1.45-1.13,1.16,1.16,0,0,1,.4-1.11A.52.52,0,0,1,304.08,136.82Z" style="fill:#263238"></path><path d="M318.48,148.28a3.73,3.73,0,0,1-.65,1.61,10.18,10.18,0,0,1-6.68,4.77,4,4,0,0,1-1.73.1,16,16,0,0,0,5.27-2.2A15.71,15.71,0,0,0,318.48,148.28Z" style="fill:#263238"></path><path d="M228.45,246.31l-.29-2.9.13-.17-.15,0-.93-32.13,31.5-5,22.53-21.6s-10.07-3.83-16.42-2.93c-22,3.11-53.21,12.56-54.48,15.94-1.79,4.79,1.61,33.12,2.31,41.94.32,4.07-.74,7.12-.29,9.06a50.68,50.68,0,0,0-5.23-3.57c-1.83-.95,1.44,4.8,2.3,6.12.34.52,1.89.73,3.73.78h1.08a43.07,43.07,0,0,0,6-.42c.59-.12,2.19-1.72,3.81-3.47Z" style="fill:#455a64"></path><path d="M228,237.64l-15.33,1.88-.39,8.63.1.43a50.68,50.68,0,0,0-5.23-3.57c-1.83-.95,1.44,4.8,2.3,6.12.34.52,1.89.73,3.73.78h1.08a43.07,43.07,0,0,0,6-.42c.59-.12,2.19-1.72,3.81-3.47l4.35-1.72Z" style="fill:#ffbe9d"></path><polygon points="212.65 239.52 227.98 237.64 227.45 219.31 219.67 208.79 211.01 222.32 212.65 239.52" style="fill:#263238"></polygon><path d="M226.85,304.71a28.1,28.1,0,0,1,1.85-3l4.63-7.19c1.82-2.8,3.47-5.33,4.69-7.14a22.31,22.31,0,0,1,2.08-2.88,25.78,25.78,0,0,1-1.77,3.08c-1.14,1.86-2.75,4.42-4.56,7.23s-3.51,5.31-4.77,7.1c-.63.9-1.15,1.61-1.52,2.1A3.6,3.6,0,0,1,226.85,304.71Z" style="fill:#263238"></path><path d="M241.54,338.93a10.78,10.78,0,0,1-4.1-3.79,10.64,10.64,0,0,1-2.12-5.17,36.52,36.52,0,0,0,2.55,4.87A36.93,36.93,0,0,0,241.54,338.93Z" style="fill:#263238"></path><path d="M312.31,214.57a2.33,2.33,0,0,1,0,.63c0,.41,0,1-.14,1.81a34.88,34.88,0,0,1-1.52,6.48,48.94,48.94,0,0,1-4.2,8.93,102.87,102.87,0,0,1-6.83,10c-5.23,6.78-10,12.85-13.51,17.25L282,264.82l-1.14,1.39a3.32,3.32,0,0,1-.43.47s.1-.2.34-.53.64-.86,1.07-1.46l4-5.29,13.38-17.34a110.23,110.23,0,0,0,6.84-9.88,50.67,50.67,0,0,0,4.26-8.82A38,38,0,0,0,312,217c.13-.77.17-1.38.24-1.79A3.13,3.13,0,0,1,312.31,214.57Z" style="fill:#263238"></path><path d="M266.83,223.11a30.24,30.24,0,0,1-2.8-4.8,29.55,29.55,0,0,1-2.35-5,30.7,30.7,0,0,1,2.81,4.8A29.15,29.15,0,0,1,266.83,223.11Z" style="fill:#263238"></path><path d="M300.54,237.55a48.17,48.17,0,0,1-9.88-.83,46.37,46.37,0,0,1,9.88.83Z" style="fill:#263238"></path><path d="M269.91,183.07s.11,0,.31.1a2.55,2.55,0,0,1,.77.56,5.18,5.18,0,0,1,1.31,3.18,18.51,18.51,0,0,1-2.92,10.84,19.16,19.16,0,0,1-8.53,7.32,17.27,17.27,0,0,1-3.26,1.06,4.28,4.28,0,0,1-1.25.18,34.62,34.62,0,0,0,4.36-1.58,19.66,19.66,0,0,0,8.24-7.25,19.1,19.1,0,0,0,3-10.54,5.24,5.24,0,0,0-1.09-3.08A6.28,6.28,0,0,0,269.91,183.07Z" style="fill:#263238"></path><polygon points="273.17 276.77 275.7 273.56 231.58 241.96 224.1 248.03 273.17 276.77" style="fill:#263238"></polygon><g style="opacity:0.4"><path d="M208.72,233.93a9.75,9.75,0,0,1-1.54.79c-1,.48-2.48,1.13-4.31,1.91-3.66,1.56-8.8,3.55-14.58,5.43s-11.11,3.27-15,4.17c-1.94.44-3.52.77-4.62,1a13.14,13.14,0,0,1-1.71.27,10.92,10.92,0,0,1,1.67-.47l4.57-1.14c3.85-1,9.15-2.44,14.92-4.31s10.91-3.8,14.6-5.27l4.37-1.76A13.11,13.11,0,0,1,208.72,233.93Z" style="fill:#fff"></path></g><g style="opacity:0.4"><path d="M159.8,247.82a3.73,3.73,0,0,1-.53.17l-1.55.4c-.68.18-1.5.38-2.48.55s-2.07.43-3.31.58-2.58.37-4,.47-3,.21-4.67.28a80.48,80.48,0,0,1-10.71-.52A78.6,78.6,0,0,1,122,247.69c-1.58-.46-3.09-.88-4.47-1.38s-2.66-1-3.81-1.43-2.18-.95-3.08-1.35-1.66-.79-2.27-1.13l-1.41-.76a2.1,2.1,0,0,1-.48-.3,3.07,3.07,0,0,1,.53.21l1.45.67c.62.31,1.39.67,2.3,1s1.92.86,3.09,1.27,2.43.93,3.82,1.37,2.88.88,4.45,1.33a87.2,87.2,0,0,0,10.46,2,84.83,84.83,0,0,0,10.63.55c1.63-.06,3.19-.09,4.64-.23s2.8-.25,4-.41,2.34-.34,3.31-.49,1.81-.32,2.48-.46l1.57-.31A1.82,1.82,0,0,1,159.8,247.82Z" style="fill:#fff"></path></g><g style="opacity:0.4"><path d="M236.19,224.47c.06.13-.6.56-1.46.95s-1.62.61-1.68.48.6-.56,1.46-1S236.13,224.34,236.19,224.47Z" style="fill:#fff"></path></g></g></svg>